999
dxfrw 0.6.3
  0
SECTION
  2
HEADER
  9
$ACADVER
  1
AC1021
  9
$DWGCODEPAGE
  3
ANSI_1252
  9
$INSBASE
 10
0
 20
0
 30
0
  9
$EXTMIN
 10
-20.16964616795359
 20
-17.743331
 30
0
  9
$EXTMAX
 10
329.6443227207279
 20
259.9732715016676
 30
0
  9
$LIMMIN
 10
0
 20
0
  9
$LIMMAX
 10
420
 20
297
  9
$ORTHOMODE
 70
    0
  9
$REGENMODE
 70
    1
  9
$FILLMODE
 70
    1
  9
$QTEXTMODE
 70
    0
  9
$MIRRTEXT
 70
    0
  9
$LTSCALE
 40
1
  9
$ATTMODE
 70
    0
  9
$TEXTSIZE
 40
2.5
  9
$TRACEWID
 40
15.68
  9
$TEXTSTYLE
  7
STANDARD
  9
$CLAYER
  8
0
  9
$CELTYPE
  6
BYLAYER
  9
$CECOLOR
 62
  256
  9
$CELTSCALE
 40
1
  9
$DISPSILH
 70
    0
  9
$DIMSCALE
 40
1
  9
$DIMASZ
 40
2.5
  9
$DIMEXO
 40
0.625
  9
$DIMDLI
 40
3.75
  9
$DIMRND
 40
0
  9
$DIMDLE
 40
0
  9
$DIMEXE
 40
1.25
  9
$DIMTP
 40
0
  9
$DIMTM
 40
0
  9
$DIMTXT
 40
2.5
  9
$DIMCEN
 40
2.5
  9
$DIMTSZ
 40
0
  9
$DIMTOL
 70
    0
  9
$DIMLIM
 70
    0
  9
$DIMTIH
 70
    0
  9
$DIMTOH
 70
    0
  9
$DIMSE1
 70
    0
  9
$DIMSE2
 70
    0
  9
$DIMTAD
 70
    1
  9
$DIMZIN
 70
    1
  9
$DIMBLK
  1

  9
$DIMASO
 70
    1
  9
$DIMSHO
 70
    1
  9
$DIMPOST
  1

  9
$DIMAPOST
  1

  9
$DIMALT
 70
    0
  9
$DIMALTD
 70
    3
  9
$DIMALTF
 40
0.03937
  9
$DIMLFAC
 40
1
  9
$DIMTOFL
 70
    1
  9
$DIMTVP
 40
0
  9
$DIMTIX
 70
    0
  9
$DIMSOXD
 70
    0
  9
$DIMSAH
 70
    0
  9
$DIMBLK1
  1

  9
$DIMBLK2
  1

  9
$DIMSTYLE
  2
Standard
  9
$DIMCLRD
 70
    0
  9
$DIMCLRE
 70
    0
  9
$DIMCLRT
 70
    0
  9
$DIMTFAC
 40
1
  9
$DIMGAP
 40
0.625
  9
$DIMJUST
 70
    0
  9
$DIMSD1
 70
    0
  9
$DIMSD2
 70
    0
  9
$DIMTOLJ
 70
    0
  9
$DIMTZIN
 70
    8
  9
$DIMALTZ
 70
    0
  9
$DIMALTTZ
 70
    0
  9
$DIMUPT
 70
    0
  9
$DIMDEC
 70
    2
  9
$DIMTDEC
 70
    2
  9
$DIMALTU
 70
    2
  9
$DIMALTTD
 70
    3
  9
$DIMTXSTY
  7
standard
  9
$DIMAUNIT
 70
    0
  9
$DIMADEC
 70
    2
  9
$DIMALTRND
 40
0
  9
$DIMAZIN
 70
    0
  9
$DIMDSEP
 70
    0
  9
$DIMATFIT
 70
    3
  9
$DIMFRAC
 70
    0
  9
$DIMLDRBLK
  1
STANDARD
  9
$DIMLUNIT
 70
    2
  9
$DIMLWD
 70
   -2
  9
$DIMLWE
 70
   -2
  9
$DIMTMOVE
 70
    0
  9
$DIMFXL
 40
1
  9
$DIMFXLON
 70
    0
  9
$DIMJOGANG
 40
0.7854
  9
$DIMTFILL
 70
    0
  9
$DIMTFILLCLR
 70
    0
  9
$DIMARCSYM
 70
    0
  9
$DIMLTYPE
  6

  9
$DIMLTEX1
  6

  9
$DIMLTEX2
  6

  9
$LUNITS
 70
    2
  9
$LUPREC
 70
    4
  9
$SKETCHINC
 40
1
  9
$FILLETRAD
 40
0
  9
$AUNITS
 70
    0
  9
$AUPREC
 70
    2
  9
$MENU
  1
.
  9
$ELEVATION
 40
0
  9
$PELEVATION
 40
0
  9
$THICKNESS
 40
0
  9
$LIMCHECK
 70
    0
  9
$CHAMFERA
 40
0
  9
$CHAMFERB
 40
0
  9
$CHAMFERC
 40
0
  9
$CHAMFERD
 40
0
  9
$SKPOLY
 70
    0
  9
$USRTIMER
 70
    1
  9
$ANGBASE
 50
0
  9
$ANGDIR
 70
    0
  9
$PDMODE
 70
   34
  9
$PDSIZE
 40
0
  9
$PLINEWID
 40
0
  9
$SPLFRAME
 70
    0
  9
$SPLINETYPE
 70
    2
  9
$SPLINESEGS
 70
    8
  9
$HANDSEED
  5
20000
  9
$SURFTAB1
 70
    6
  9
$SURFTAB2
 70
    6
  9
$SURFTYPE
 70
    6
  9
$SURFU
 70
    6
  9
$SURFV
 70
    6
  9
$UCSBASE
  2

  9
$UCSNAME
  2

  9
$UCSORG
 10
0
 20
0
 30
0
  9
$UCSXDIR
 10
1
 20
0
 30
0
  9
$UCSYDIR
 10
0
 20
1
 30
0
  9
$UCSORTHOREF
  2

  9
$UCSORTHOVIEW
 70
    0
  9
$UCSORGTOP
 10
0
 20
0
 30
0
  9
$UCSORGBOTTOM
 10
0
 20
0
 30
0
  9
$UCSORGLEFT
 10
0
 20
0
 30
0
  9
$UCSORGRIGHT
 10
0
 20
0
 30
0
  9
$UCSORGFRONT
 10
0
 20
0
 30
0
  9
$UCSORGBACK
 10
0
 20
0
 30
0
  9
$PUCSBASE
  2

  9
$PUCSNAME
  2

  9
$PUCSORG
 10
0
 20
0
 30
0
  9
$PUCSXDIR
 10
1
 20
0
 30
0
  9
$PUCSYDIR
 10
0
 20
1
 30
0
  9
$PUCSORTHOREF
  2

  9
$PUCSORTHOVIEW
 70
    0
  9
$PUCSORGTOP
 10
0
 20
0
 30
0
  9
$PUCSORGBOTTOM
 10
0
 20
0
 30
0
  9
$PUCSORGLEFT
 10
0
 20
0
 30
0
  9
$PUCSORGRIGHT
 10
0
 20
0
 30
0
  9
$PUCSORGFRONT
 10
0
 20
0
 30
0
  9
$PUCSORGBACK
 10
0
 20
0
 30
0
  9
$USERI1
 70
    0
  9
$USERI2
 70
    0
  9
$USERI3
 70
    0
  9
$USERI4
 70
    0
  9
$USERI5
 70
    0
  9
$USERR1
 40
0
  9
$USERR2
 40
0
  9
$USERR3
 40
0
  9
$USERR4
 40
0
  9
$USERR5
 40
0
  9
$WORLDVIEW
 70
    1
  9
$SHADEDGE
 70
    3
  9
$SHADEDIF
 70
   70
  9
$TILEMODE
 70
    1
  9
$MAXACTVP
 70
   64
  9
$PINSBASE
 10
0
 20
0
 30
0
  9
$PLIMCHECK
 70
    0
  9
$PEXTMIN
 10
0
 20
0
 30
0
  9
$PEXTMAX
 10
0
 20
0
 30
0
  9
$GRIDMODE
 70
    1
  9
$SNAPSTYLE
 70
    0
  9
$GRIDUNIT
 10
0
 20
0
  9
$PLIMMIN
 10
0
 20
0
  9
$PLIMMAX
 10
210
 20
297
  9
$UNITMODE
 70
    0
  9
$VISRETAIN
 70
    1
  9
$PLINEGEN
 70
    0
  9
$PSLTSCALE
 70
    1
  9
$TREEDEPTH
 70
 3020
  9
$CMLSTYLE
  2
Standard
  9
$CMLJUST
 70
    0
  9
$CMLSCALE
 40
20
  9
$PROXYGRAPHICS
 70
    1
  9
$MEASUREMENT
 70
    1
  9
$CELWEIGHT
370
   -1
  9
$ENDCAPS
280
    0
  9
$JOINSTYLE
280
    0
  9
$LWDISPLAY
290
    0
  9
$INSUNITS
 70
    4
  9
$HYPERLINKBASE
  1

  9
$STYLESHEET
  1

  9
$XEDIT
290
    1
  9
$CEPSNTYPE
380
    0
  9
$PSTYLEMODE
290
    1
  9
$EXTNAMES
290
    1
  9
$PSVPSCALE
 40
1
  9
$OLESTARTUP
290
    0
  9
$SORTENTS
280
  127
  9
$INDEXCTL
280
    0
  9
$HIDETEXT
280
    1
  9
$XCLIPFRAME
290
    0
  9
$HALOGAP
280
    0
  9
$OBSCOLOR
 70
  257
  9
$OBSLTYPE
280
    0
  9
$INTERSECTIONDISPLAY
280
    0
  9
$INTERSECTIONCOLOR
 70
  257
  9
$DIMASSOC
280
    1
  9
$PROJECTNAME
  1

  9
$CAMERADISPLAY
290
    0
  9
$LENSLENGTH
 40
50
  9
$CAMERAHEIGHT
 40
0
  9
$STEPSPERSEC
 40
2
  9
$STEPSIZE
 40
50
  9
$3DDWFPREC
 40
2
  9
$PSOLWIDTH
 40
5
  9
$PSOLHEIGHT
 40
80
  9
$LOFTANG1
 40
1.570796326794897
  9
$LOFTANG2
 40
1.570796326794897
  9
$LOFTMAG1
 40
0
  9
$LOFTMAG2
 40
0
  9
$LOFTPARAM
 70
    7
  9
$LOFTNORMALS
280
    1
  9
$LATITUDE
 40
1
  9
$LONGITUDE
 40
1
  9
$NORTHDIRECTION
 40
0
  9
$TIMEZONE
 70
-8000
  9
$LIGHTGLYPHDISPLAY
280
    1
  9
$TILEMODELIGHTSYNCH
280
    1
  9
$SOLIDHIST
280
    1
  9
$SHOWHIST
280
    1
  9
$DWFFRAME
280
    2
  9
$DGNFRAME
280
    0
  9
$REALWORLDSCALE
290
    1
  9
$INTERFERECOLOR
 62
    1
  9
$CSHADOW
280
    0
  9
$SHADOWPLANELOCATION
 40
0
  0
ENDSEC
  0
SECTION
  2
CLASSES
  0
ENDSEC
  0
SECTION
  2
TABLES
  0
TABLE
  2
VPORT
  5
8
330
0
100
AcDbSymbolTable
 70
    1
  0
VPORT
  5
31
330
2
100
AcDbSymbolTableRecord
100
AcDbViewportTableRecord
  2
*ACTIVE
 70
    0
 10
0
 20
0
 11
1
 21
1
 12
257.6300088005026
 22
176.8406885906863
 13
0
 23
0
 14
10
 24
10
 15
10
 25
10
 16
0
 26
0
 36
1
 17
0
 27
0
 37
0
 40
392.8318485766839
 41
1.863175675675676
 42
50
 43
0
 44
0
 50
0
 51
0
 71
    0
 72
  100
 73
    1
 74
    3
 75
    0
 76
    1
 77
    0
 78
    0
281
    0
 65
    1
110
0
120
0
130
0
111
1
121
0
131
0
112
0
122
1
132
0
 79
    0
146
0
348
10020
 60
    7
 61
    5
292
1
282
    1
141
0
142
0
 63
  250
421
3358443
  0
ENDTAB
  0
TABLE
  2
LTYPE
  5
5
330
0
100
AcDbSymbolTable
 70
    4
  0
LTYPE
  5
14
330
5
100
AcDbSymbolTableRecord
100
AcDbLinetypeTableRecord
  2
ByBlock
 70
    0
  3

 72
   65
 73
    0
 40
0
  0
LTYPE
  5
15
330
5
100
AcDbSymbolTableRecord
100
AcDbLinetypeTableRecord
  2
ByLayer
 70
    0
  3

 72
   65
 73
    0
 40
0
  0
LTYPE
  5
16
330
5
100
AcDbSymbolTableRecord
100
AcDbLinetypeTableRecord
  2
Continuous
 70
    0
  3
Solid line
 72
   65
 73
    0
 40
0
  0
LTYPE
  5
32
330
5
100
AcDbSymbolTableRecord
100
AcDbLinetypeTableRecord
  2
DOT
 70
    0
  3
Dot . . . . . . . . . . . . . . . . . . . . . .
 72
   65
 73
    2
 40
6.35
 49
0
 74
    0
 49
-6.35
 74
    0
  0
LTYPE
  5
33
330
5
100
AcDbSymbolTableRecord
100
AcDbLinetypeTableRecord
  2
DOTTINY
 70
    0
  3
Dot (.15x) .....................................
 72
   65
 73
    2
 40
0.9525
 49
0
 74
    0
 49
-0.9525
 74
    0
  0
LTYPE
  5
34
330
5
100
AcDbSymbolTableRecord
100
AcDbLinetypeTableRecord
  2
DOT2
 70
    0
  3
Dot (.5x) .....................................
 72
   65
 73
    2
 40
3.175
 49
0
 74
    0
 49
-3.175
 74
    0
  0
LTYPE
  5
35
330
5
100
AcDbSymbolTableRecord
100
AcDbLinetypeTableRecord
  2
DOTX2
 70
    0
  3
Dot (2x) .  .  .  .  .  .  .  .  .  .  .  .  .
 72
   65
 73
    2
 40
12.7
 49
0
 74
    0
 49
-12.7
 74
    0
  0
LTYPE
  5
36
330
5
100
AcDbSymbolTableRecord
100
AcDbLinetypeTableRecord
  2
DASHED
 70
    0
  3
Dashed _ _ _ _ _ _ _ _ _ _ _ _ _ _ _ _ _
 72
   65
 73
    2
 40
19.05
 49
12.7
 74
    0
 49
-6.35
 74
    0
  0
LTYPE
  5
37
330
5
100
AcDbSymbolTableRecord
100
AcDbLinetypeTableRecord
  2
DASHEDTINY
 70
    0
  3
Dashed (.15x) _ _ _ _ _ _ _ _ _ _ _ _ _ _ _ _ _
 72
   65
 73
    2
 40
2.8575
 49
1.905
 74
    0
 49
-0.9525
 74
    0
  0
LTYPE
  5
38
330
5
100
AcDbSymbolTableRecord
100
AcDbLinetypeTableRecord
  2
DASHED2
 70
    0
  3
Dashed (.5x) _ _ _ _ _ _ _ _ _ _ _ _ _ _ _ _ _
 72
   65
 73
    2
 40
9.524999999999999
 49
6.35
 74
    0
 49
-3.175
 74
    0
  0
LTYPE
  5
39
330
5
100
AcDbSymbolTableRecord
100
AcDbLinetypeTableRecord
  2
DASHEDX2
 70
    0
  3
Dashed (2x) ____  ____  ____  ____  ____  ___
 72
   65
 73
    2
 40
38.09999999999999
 49
25.4
 74
    0
 49
-12.7
 74
    0
  0
LTYPE
  5
3A
330
5
100
AcDbSymbolTableRecord
100
AcDbLinetypeTableRecord
  2
DASHDOT
 70
    0
  3
Dash dot __ . __ . __ . __ . __ . __ . __ . __
 72
   65
 73
    4
 40
25.4
 49
12.7
 74
    0
 49
-6.35
 74
    0
 49
0
 74
    0
 49
-6.35
 74
    0
  0
LTYPE
  5
3B
330
5
100
AcDbSymbolTableRecord
100
AcDbLinetypeTableRecord
  2
DASHDOTTINY
 70
    0
  3
Dash dot (.15x) _._._._._._._._._._._._._._._.
 72
   65
 73
    4
 40
3.81
 49
1.905
 74
    0
 49
-0.9525
 74
    0
 49
0
 74
    0
 49
-0.9525
 74
    0
  0
LTYPE
  5
3C
330
5
100
AcDbSymbolTableRecord
100
AcDbLinetypeTableRecord
  2
DASHDOT2
 70
    0
  3
Dash dot (.5x) _._._._._._._._._._._._._._._.
 72
   65
 73
    4
 40
12.7
 49
6.35
 74
    0
 49
-3.175
 74
    0
 49
0
 74
    0
 49
-3.175
 74
    0
  0
LTYPE
  5
3D
330
5
100
AcDbSymbolTableRecord
100
AcDbLinetypeTableRecord
  2
DASHDOTX2
 70
    0
  3
Dash dot (2x) ____  .  ____  .  ____  .  ___
 72
   65
 73
    4
 40
50.8
 49
25.4
 74
    0
 49
-12.7
 74
    0
 49
0
 74
    0
 49
-12.7
 74
    0
  0
LTYPE
  5
3E
330
5
100
AcDbSymbolTableRecord
100
AcDbLinetypeTableRecord
  2
DIVIDE
 70
    0
  3
Divide ____ . . ____ . . ____ . . ____ . . ____
 72
   65
 73
    6
 40
31.75
 49
12.7
 74
    0
 49
-6.35
 74
    0
 49
0
 74
    0
 49
-6.35
 74
    0
 49
0
 74
    0
 49
-6.35
 74
    0
  0
LTYPE
  5
3F
330
5
100
AcDbSymbolTableRecord
100
AcDbLinetypeTableRecord
  2
DIVIDETINY
 70
    0
  3
Divide (.15x) __..__..__..__..__..__..__..__.._
 72
   65
 73
    6
 40
4.7625
 49
1.905
 74
    0
 49
-0.9525
 74
    0
 49
0
 74
    0
 49
-0.9525
 74
    0
 49
0
 74
    0
 49
-0.9525
 74
    0
  0
LTYPE
  5
40
330
5
100
AcDbSymbolTableRecord
100
AcDbLinetypeTableRecord
  2
DIVIDE2
 70
    0
  3
Divide (.5x) __..__..__..__..__..__..__..__.._
 72
   65
 73
    6
 40
15.875
 49
6.35
 74
    0
 49
-3.175
 74
    0
 49
0
 74
    0
 49
-3.175
 74
    0
 49
0
 74
    0
 49
-3.175
 74
    0
  0
LTYPE
  5
41
330
5
100
AcDbSymbolTableRecord
100
AcDbLinetypeTableRecord
  2
DIVIDEX2
 70
    0
  3
Divide (2x) ________  .  .  ________  .  .  _
 72
   65
 73
    6
 40
63.5
 49
25.4
 74
    0
 49
-12.7
 74
    0
 49
0
 74
    0
 49
-12.7
 74
    0
 49
0
 74
    0
 49
-12.7
 74
    0
  0
LTYPE
  5
42
330
5
100
AcDbSymbolTableRecord
100
AcDbLinetypeTableRecord
  2
BORDER
 70
    0
  3
Border __ __ . __ __ . __ __ . __ __ . __ __ .
 72
   65
 73
    6
 40
44.45
 49
12.7
 74
    0
 49
-6.35
 74
    0
 49
12.7
 74
    0
 49
-6.35
 74
    0
 49
0
 74
    0
 49
-6.35
 74
    0
  0
LTYPE
  5
43
330
5
100
AcDbSymbolTableRecord
100
AcDbLinetypeTableRecord
  2
BORDERTINY
 70
    0
  3
Border (.15x) __.__.__.__.__.__.__.__.__.__.__.
 72
   65
 73
    6
 40
6.6675
 49
1.905
 74
    0
 49
-0.9525
 74
    0
 49
1.905
 74
    0
 49
-0.9525
 74
    0
 49
0
 74
    0
 49
-0.9525
 74
    0
  0
LTYPE
  5
44
330
5
100
AcDbSymbolTableRecord
100
AcDbLinetypeTableRecord
  2
BORDER2
 70
    0
  3
Border (.5x) __.__.__.__.__.__.__.__.__.__.__.
 72
   65
 73
    6
 40
22.225
 49
6.35
 74
    0
 49
-3.175
 74
    0
 49
6.35
 74
    0
 49
-3.175
 74
    0
 49
0
 74
    0
 49
-3.175
 74
    0
  0
LTYPE
  5
45
330
5
100
AcDbSymbolTableRecord
100
AcDbLinetypeTableRecord
  2
BORDERX2
 70
    0
  3
Border (2x) ____  ____  .  ____  ____  .  ___
 72
   65
 73
    6
 40
88.89999999999999
 49
25.4
 74
    0
 49
-12.7
 74
    0
 49
25.4
 74
    0
 49
-12.7
 74
    0
 49
0
 74
    0
 49
-12.7
 74
    0
  0
LTYPE
  5
46
330
5
100
AcDbSymbolTableRecord
100
AcDbLinetypeTableRecord
  2
CENTER
 70
    0
  3
Center ____ _ ____ _ ____ _ ____ _ ____ _ ____
 72
   65
 73
    4
 40
50.8
 49
31.75
 74
    0
 49
-6.35
 74
    0
 49
6.35
 74
    0
 49
-6.35
 74
    0
  0
LTYPE
  5
47
330
5
100
AcDbSymbolTableRecord
100
AcDbLinetypeTableRecord
  2
CENTERTINY
 70
    0
  3
Center (.15x) ___ _ ___ _ ___ _ ___ _ ___ _ ___
 72
   65
 73
    4
 40
7.619999999999999
 49
4.7625
 74
    0
 49
-0.9525
 74
    0
 49
0.9525
 74
    0
 49
-0.9525
 74
    0
  0
LTYPE
  5
48
330
5
100
AcDbSymbolTableRecord
100
AcDbLinetypeTableRecord
  2
CENTER2
 70
    0
  3
Center (.5x) ___ _ ___ _ ___ _ ___ _ ___ _ ___
 72
   65
 73
    4
 40
28.575
 49
19.05
 74
    0
 49
-3.175
 74
    0
 49
3.175
 74
    0
 49
-3.175
 74
    0
  0
LTYPE
  5
49
330
5
100
AcDbSymbolTableRecord
100
AcDbLinetypeTableRecord
  2
CENTERX2
 70
    0
  3
Center (2x) ________  __  ________  __  _____
 72
   65
 73
    4
 40
101.6
 49
63.5
 74
    0
 49
-12.7
 74
    0
 49
12.7
 74
    0
 49
-12.7
 74
    0
  0
ENDTAB
  0
TABLE
  2
LAYER
  5
2
330
0
100
AcDbSymbolTable
 70
    1
  0
LAYER
  5
10
330
2
100
AcDbSymbolTableRecord
100
AcDbLayerTableRecord
  2
0
 70
    0
 62
    7
  6
CONTINUOUS
370
   -3
390
F
  0
ENDTAB
  0
TABLE
  2
STYLE
  5
3
330
0
100
AcDbSymbolTable
 70
    3
  0
STYLE
  5
4A
330
2
100
AcDbSymbolTableRecord
100
AcDbTextStyleTableRecord
  2
Standard
 70
    0
 40
0
 41
1
 50
0
 71
    0
 42
1
  3
txt
  4

  0
ENDTAB
  0
TABLE
  2
VIEW
  5
6
330
0
100
AcDbSymbolTable
 70
    0
  0
ENDTAB
  0
TABLE
  2
UCS
  5
7
330
0
100
AcDbSymbolTable
 70
    0
  0
ENDTAB
  0
TABLE
  2
APPID
  5
9
330
0
100
AcDbSymbolTable
 70
    1
  0
APPID
  5
12
330
9
100
AcDbSymbolTableRecord
100
AcDbRegAppTableRecord
  2
ACAD
 70
    0
  0
APPID
  5
4B
330
9
100
AcDbSymbolTableRecord
100
AcDbRegAppTableRecord
  2
LibreCad
 70
    0
  0
ENDTAB
  0
TABLE
  2
DIMSTYLE
  5
A
330
0
100
AcDbSymbolTable
 70
    1
100
AcDbDimStyleTable
 71
    1
  0
DIMSTYLE
105
4C
330
A
100
AcDbSymbolTableRecord
100
AcDbDimStyleTableRecord
  2
Standard
 70
    0
 40
1
 41
2.5
 42
0.625
 43
0.38
 44
1.25
 45
0
 46
0
 47
0
 48
0
 49
1
140
2.5
141
0.09
142
0
143
25.4
144
1
145
0
146
1
147
0.625
148
0
 71
    0
 72
    0
 73
    0
 74
    1
 75
    0
 76
    0
 77
    0
 78
    1
 79
    0
170
    0
171
    2
172
    0
173
    0
174
    0
175
    0
176
    0
177
    0
178
    0
179
    2
271
    2
272
    4
273
    2
274
    2
275
    0
276
    0
277
    2
278
    0
279
    0
280
    0
281
    0
282
    0
283
    1
284
    0
285
    0
286
    0
288
    0
289
    3
340
standard
341

371
   -2
372
   -2
  0
ENDTAB
  0
TABLE
  2
BLOCK_RECORD
  5
1
330
0
100
AcDbSymbolTable
 70
    2
  0
BLOCK_RECORD
  5
1F
330
1
100
AcDbSymbolTableRecord
100
AcDbBlockTableRecord
  2
*Model_Space
 70
    0
280
    1
281
    0
  0
BLOCK_RECORD
  5
1E
330
1
100
AcDbSymbolTableRecord
100
AcDbBlockTableRecord
  2
*Paper_Space
 70
    0
280
    1
281
    0
  0
BLOCK_RECORD
  5
4D
330
1
100
AcDbSymbolTableRecord
100
AcDbBlockTableRecord
  2
*D4
 70
    0
280
    1
281
    0
  0
BLOCK_RECORD
  5
50
330
1
100
AcDbSymbolTableRecord
100
AcDbBlockTableRecord
  2
*D2
 70
    0
280
    1
281
    0
  0
BLOCK_RECORD
  5
53
330
1
100
AcDbSymbolTableRecord
100
AcDbBlockTableRecord
  2
*D20
 70
    0
280
    1
281
    0
  0
BLOCK_RECORD
  5
56
330
1
100
AcDbSymbolTableRecord
100
AcDbBlockTableRecord
  2
*D15
 70
    0
280
    1
281
    0
  0
BLOCK_RECORD
  5
59
330
1
100
AcDbSymbolTableRecord
100
AcDbBlockTableRecord
  2
*D10
 70
    0
280
    1
281
    0
  0
BLOCK_RECORD
  5
5C
330
1
100
AcDbSymbolTableRecord
100
AcDbBlockTableRecord
  2
*D9
 70
    0
280
    1
281
    0
  0
BLOCK_RECORD
  5
5F
330
1
100
AcDbSymbolTableRecord
100
AcDbBlockTableRecord
  2
*D3
 70
    0
280
    1
281
    0
  0
BLOCK_RECORD
  5
62
330
1
100
AcDbSymbolTableRecord
100
AcDbBlockTableRecord
  2
*D23
 70
    0
280
    1
281
    0
  0
BLOCK_RECORD
  5
65
330
1
100
AcDbSymbolTableRecord
100
AcDbBlockTableRecord
  2
*D17
 70
    0
280
    1
281
    0
  0
BLOCK_RECORD
  5
68
330
1
100
AcDbSymbolTableRecord
100
AcDbBlockTableRecord
  2
*D5
 70
    0
280
    1
281
    0
  0
BLOCK_RECORD
  5
6B
330
1
100
AcDbSymbolTableRecord
100
AcDbBlockTableRecord
  2
*D7
 70
    0
280
    1
281
    0
  0
BLOCK_RECORD
  5
6E
330
1
100
AcDbSymbolTableRecord
100
AcDbBlockTableRecord
  2
*D14
 70
    0
280
    1
281
    0
  0
BLOCK_RECORD
  5
71
330
1
100
AcDbSymbolTableRecord
100
AcDbBlockTableRecord
  2
*D12
 70
    0
280
    1
281
    0
  0
BLOCK_RECORD
  5
74
330
1
100
AcDbSymbolTableRecord
100
AcDbBlockTableRecord
  2
*D18
 70
    0
280
    1
281
    0
  0
BLOCK_RECORD
  5
77
330
1
100
AcDbSymbolTableRecord
100
AcDbBlockTableRecord
  2
*D13
 70
    0
280
    1
281
    0
  0
BLOCK_RECORD
  5
7A
330
1
100
AcDbSymbolTableRecord
100
AcDbBlockTableRecord
  2
*D22
 70
    0
280
    1
281
    0
  0
BLOCK_RECORD
  5
7D
330
1
100
AcDbSymbolTableRecord
100
AcDbBlockTableRecord
  2
*D1
 70
    0
280
    1
281
    0
  0
BLOCK_RECORD
  5
80
330
1
100
AcDbSymbolTableRecord
100
AcDbBlockTableRecord
  2
*D19
 70
    0
280
    1
281
    0
  0
BLOCK_RECORD
  5
83
330
1
100
AcDbSymbolTableRecord
100
AcDbBlockTableRecord
  2
*D21
 70
    0
280
    1
281
    0
  0
BLOCK_RECORD
  5
86
330
1
100
AcDbSymbolTableRecord
100
AcDbBlockTableRecord
  2
*D8
 70
    0
280
    1
281
    0
  0
BLOCK_RECORD
  5
89
330
1
100
AcDbSymbolTableRecord
100
AcDbBlockTableRecord
  2
*D16
 70
    0
280
    1
281
    0
  0
BLOCK_RECORD
  5
8C
330
1
100
AcDbSymbolTableRecord
100
AcDbBlockTableRecord
  2
*D6
 70
    0
280
    1
281
    0
  0
BLOCK_RECORD
  5
8F
330
1
100
AcDbSymbolTableRecord
100
AcDbBlockTableRecord
  2
*D11
 70
    0
280
    1
281
    0
  0
ENDTAB
  0
ENDSEC
  0
SECTION
  2
BLOCKS
  0
BLOCK
  5
20
330
1F
100
AcDbEntity
  8
0
100
AcDbBlockBegin
  2
*Model_Space
 70
    0
 10
0
 20
0
 30
0
  3
*Model_Space
  1

  0
ENDBLK
  5
21
330
1F
100
AcDbEntity
  8
0
100
AcDbBlockEnd
  0
BLOCK
  5
1C
330
1B
100
AcDbEntity
  8
0
100
AcDbBlockBegin
  2
*Paper_Space
 70
    0
 10
0
 20
0
 30
0
  3
*Paper_Space
  1

  0
ENDBLK
  5
1D
330
1F
100
AcDbEntity
  8
0
100
AcDbBlockEnd
  0
BLOCK
  5
4E
330
4D
100
AcDbEntity
  8
0
100
AcDbBlockBegin
  2
*D4
 70
    1
 10
0
 20
0
  3
*D4
  1

  0
LINE
  5
92
100
AcDbEntity
  8
0
  6
ByBlock
 62
    0
370
   -2
100
AcDbLine
 10
159.4924132502126
 20
12.17857142857395
 11
148.5073550548106
 21
12.17857142857395
  0
SOLID
  5
93
100
AcDbEntity
  8
0
  6
ByBlock
 62
    0
370
   -2
100
AcDbTrace
 10
159.4924132502126
 20
12.17857142857395
 30
0
 11
156.9924132502126
 21
11.76228677080111
 31
0
 12
156.9924132502126
 22
12.59485608634679
 32
0
 13
156.9924132502126
 23
12.59485608634679
 33
0
  0
SOLID
  5
94
100
AcDbEntity
  8
0
  6
ByBlock
 62
    0
370
   -2
100
AcDbTrace
 10
148.5073550548106
 20
12.17857142857395
 30
0
 11
151.0073550548106
 21
12.59485608634679
 31
0
 12
151.0073550548106
 22
11.76228677080111
 32
0
 13
151.0073550548106
 23
11.76228677080111
 33
0
  0
MTEXT
  5
95
100
AcDbEntity
  8
0
  6
CONTINUOUS
 62
    0
370
   -2
100
AcDbMText
 10
153.9998841525116
 20
14.05357142857395
 30
0
 40
2.5
 41
7.222222222222222
 71
    5
 72
    1
  1
10.99
  7
standard
210
0
220
0
230
1
 50
360
 73
    2
 44
1
  0
LINE
  5
96
100
AcDbEntity
  8
0
  6
ByBlock
 62
    0
370
   -2
100
AcDbLine
 10
159.4924132502126
 20
49.29559051857585
 11
159.4924132502126
 21
10.92857142857395
  0
LINE
  5
97
100
AcDbEntity
  8
0
  6
ByBlock
 62
    0
370
   -2
100
AcDbLine
 10
148.5073550548106
 20
197.5371518961901
 11
148.5073550548106
 21
10.92857142857395
  0
ENDBLK
  5
4F
330
4D
100
AcDbEntity
  8
0
100
AcDbBlockEnd
  0
BLOCK
  5
51
330
50
100
AcDbEntity
  8
0
100
AcDbBlockBegin
  2
*D2
 70
    1
 10
0
 20
0
  3
*D2
  1

  0
LINE
  5
98
100
AcDbEntity
  8
0
  6
ByBlock
 62
    0
370
   -2
100
AcDbLine
 10
148.5091443000356
 20
170.7725152698563
 11
126.0042375141238
 21
170.7725152698563
  0
SOLID
  5
99
100
AcDbEntity
  8
0
  6
ByBlock
 62
    0
370
   -2
100
AcDbTrace
 10
148.5091443000356
 20
170.7725152698563
 30
0
 11
146.0091443000356
 21
170.3562306120835
 31
0
 12
146.0091443000356
 22
171.1887999276292
 32
0
 13
146.0091443000356
 23
171.1887999276292
 33
0
  0
SOLID
  5
9A
100
AcDbEntity
  8
0
  6
ByBlock
 62
    0
370
   -2
100
AcDbTrace
 10
126.0042375141238
 20
170.7725152698563
 30
0
 11
128.5042375141238
 21
171.1887999276292
 31
0
 12
128.5042375141238
 22
170.3562306120835
 32
0
 13
128.5042375141238
 23
170.3562306120835
 33
0
  0
MTEXT
  5
9B
100
AcDbEntity
  8
0
  6
CONTINUOUS
 62
    0
370
   -2
100
AcDbMText
 10
137.2566909070797
 20
172.6475152698563
 30
0
 40
2.5
 41
7.777777777777933
 71
    5
 72
    1
  1
22.50
  7
standard
210
0
220
0
230
1
 50
360
 73
    2
 44
1
  0
LINE
  5
9C
100
AcDbEntity
  8
0
  6
ByBlock
 62
    0
370
   -2
100
AcDbLine
 10
148.5091443000356
 20
197.5604088429228
 11
148.5091443000356
 21
169.5225152698563
  0
LINE
  5
9D
100
AcDbEntity
  8
0
  6
ByBlock
 62
    0
370
   -2
100
AcDbLine
 10
126.0042375141238
 20
181.0733619171906
 11
126.0042375141238
 21
169.5225152698563
  0
ENDBLK
  5
52
330
50
100
AcDbEntity
  8
0
100
AcDbBlockEnd
  0
BLOCK
  5
54
330
53
100
AcDbEntity
  8
0
100
AcDbBlockBegin
  2
*D20
 70
    1
 10
0
 20
0
  3
*D20
  1

  0
LINE
  5
9E
100
AcDbEntity
  8
0
  6
ByBlock
 62
    0
370
   -2
100
AcDbLine
 10
184.6628093287265
 20
198.2054203692553
 11
184.6628093287265
 21
181.696333509751
  0
SOLID
  5
9F
100
AcDbEntity
  8
0
  6
ByBlock
 62
    0
370
   -2
100
AcDbTrace
 10
184.6628093287265
 20
198.2054203692553
 30
0
 11
185.0790939864993
 21
195.7054203692553
 31
0
 12
184.2465246709536
 22
195.7054203692553
 32
0
 13
184.2465246709536
 23
195.7054203692553
 33
0
  0
SOLID
  5
A0
100
AcDbEntity
  8
0
  6
ByBlock
 62
    0
370
   -2
100
AcDbTrace
 10
184.6628093287265
 20
181.696333509751
 30
0
 11
184.2465246709536
 21
184.196333509751
 31
0
 12
185.0790939864993
 22
184.196333509751
 32
0
 13
185.0790939864993
 23
184.196333509751
 33
0
  0
MTEXT
  5
A1
100
AcDbEntity
  8
0
  6
CONTINUOUS
 62
    0
370
   -2
100
AcDbMText
 10
182.7878093287265
 20
189.9508769395031
 30
0
 40
2.5
 41
6.666666666666977
 71
    5
 72
    1
  1
16.51
  7
standard
210
0
220
0
230
1
 50
90
 73
    2
 44
1
  0
LINE
  5
A2
100
AcDbEntity
  8
0
  6
ByBlock
 62
    0
370
   -2
100
AcDbLine
 10
149.1293632978106
 20
198.2054203692553
 11
185.9128093287265
 21
198.2054203692553
  0
LINE
  5
A3
100
AcDbEntity
  8
0
  6
ByBlock
 62
    0
370
   -2
100
AcDbLine
 10
171.6213146859986
 20
181.696333509751
 11
185.9128093287265
 21
181.696333509751
  0
ENDBLK
  5
55
330
53
100
AcDbEntity
  8
0
100
AcDbBlockEnd
  0
BLOCK
  5
57
330
56
100
AcDbEntity
  8
0
100
AcDbBlockBegin
  2
*D15
 70
    1
 10
0
 20
0
  3
*D15
  1

  0
LINE
  5
A4
100
AcDbEntity
  8
0
  6
ByBlock
 62
    0
370
   -2
100
AcDbLine
 10
328.3943227207279
 20
137.186611694047
 11
328.3943227207279
 21
4.689604639838067
  0
SOLID
  5
A5
100
AcDbEntity
  8
0
  6
ByBlock
 62
    0
370
   -2
100
AcDbTrace
 10
328.3943227207279
 20
137.186611694047
 30
0
 11
328.8106073785008
 21
134.686611694047
 31
0
 12
327.9780380629551
 22
134.686611694047
 32
0
 13
327.9780380629551
 23
134.686611694047
 33
0
  0
SOLID
  5
A6
100
AcDbEntity
  8
0
  6
ByBlock
 62
    0
370
   -2
100
AcDbTrace
 10
328.3943227207279
 20
4.689604639838067
 30
0
 11
327.9780380629551
 21
7.189604639838067
 31
0
 12
328.8106073785008
 22
7.189604639838067
 32
0
 13
328.8106073785008
 23
7.189604639838067
 33
0
  0
MTEXT
  5
A7
100
AcDbEntity
  8
0
  6
CONTINUOUS
 62
    0
370
   -2
100
AcDbMText
 10
326.5193227207279
 20
70.93810816694254
 30
0
 40
2.5
 41
9.166666666666977
 71
    5
 72
    1
  1
132.50
  7
standard
210
0
220
0
230
1
 50
90
 73
    2
 44
1
  0
LINE
  5
A8
100
AcDbEntity
  8
0
  6
ByBlock
 62
    0
370
   -2
100
AcDbLine
 10
254.1203579172758
 20
137.186611694047
 11
329.6443227207279
 21
137.186611694047
  0
LINE
  5
A9
100
AcDbEntity
  8
0
  6
ByBlock
 62
    0
370
   -2
100
AcDbLine
 10
246.8762821790714
 20
4.689604639838067
 11
329.6443227207279
 21
4.689604639838067
  0
ENDBLK
  5
58
330
56
100
AcDbEntity
  8
0
100
AcDbBlockEnd
  0
BLOCK
  5
5A
330
59
100
AcDbEntity
  8
0
100
AcDbBlockBegin
  2
*D10
 70
    1
 10
0
 20
0
  3
*D10
  1

  0
LINE
  5
AA
100
AcDbEntity
  8
0
  6
ByBlock
 62
    0
370
   -2
100
AcDbLine
 10
226.3753408118256
 20
-7.839798932630384
 11
246.2512821789628
 21
-7.839798932630384
  0
SOLID
  5
AB
100
AcDbEntity
  8
0
  6
ByBlock
 62
    0
370
   -2
100
AcDbTrace
 10
226.3753408118256
 20
-7.839798932630384
 30
0
 11
228.8753408118256
 21
-7.423514274857544
 31
0
 12
228.8753408118256
 22
-8.256083590403225
 32
0
 13
228.8753408118256
 23
-8.256083590403225
 33
0
  0
SOLID
  5
AC
100
AcDbEntity
  8
0
  6
ByBlock
 62
    0
370
   -2
100
AcDbTrace
 10
246.2512821789628
 20
-7.839798932630384
 30
0
 11
243.7512821789628
 21
-8.256083590403223
 31
0
 12
243.7512821789628
 22
-7.423514274857543
 32
0
 13
243.7512821789628
 23
-7.423514274857543
 33
0
  0
MTEXT
  5
AD
100
AcDbEntity
  8
0
  6
CONTINUOUS
 62
    0
370
   -2
100
AcDbMText
 10
236.3133114953942
 20
-5.964798932630384
 30
0
 40
2.5
 41
7.222222222222222
 71
    5
 72
    1
  1
19.88
  7
standard
210
0
220
0
230
1
 50
0
 73
    2
 44
1
  0
LINE
  5
AE
100
AcDbEntity
  8
0
  6
ByBlock
 62
    0
370
   -2
100
AcDbLine
 10
226.3753408118256
 20
15.57337906598654
 11
226.3753408118256
 21
-9.089798932630384
  0
LINE
  5
AF
100
AcDbEntity
  8
0
  6
ByBlock
 62
    0
370
   -2
100
AcDbLine
 10
246.2512821789628
 20
4.044648875411166
 11
246.2512821789628
 21
-9.089798932630384
  0
ENDBLK
  5
5B
330
59
100
AcDbEntity
  8
0
100
AcDbBlockEnd
  0
BLOCK
  5
5D
330
5C
100
AcDbEntity
  8
0
100
AcDbBlockBegin
  2
*D9
 70
    1
 10
0
 20
0
  3
*D9
  1

  0
LINE
  5
B0
100
AcDbEntity
  8
0
  6
ByBlock
 62
    0
370
   -2
100
AcDbLine
 10
148.5052675592939
 20
-7.784169116068522
 11
226.3753408118206
 21
-7.784169116068522
  0
SOLID
  5
B1
100
AcDbEntity
  8
0
  6
ByBlock
 62
    0
370
   -2
100
AcDbTrace
 10
148.5052675592939
 20
-7.784169116068522
 30
0
 11
151.0052675592939
 21
-7.367884458295682
 31
0
 12
151.0052675592939
 22
-8.200453773841364
 32
0
 13
151.0052675592939
 23
-8.200453773841364
 33
0
  0
SOLID
  5
B2
100
AcDbEntity
  8
0
  6
ByBlock
 62
    0
370
   -2
100
AcDbTrace
 10
226.3753408118206
 20
-7.784169116068522
 30
0
 11
223.8753408118206
 21
-8.200453773841362
 31
0
 12
223.8753408118206
 22
-7.367884458295682
 32
0
 13
223.8753408118206
 23
-7.367884458295682
 33
0
  0
MTEXT
  5
B3
100
AcDbEntity
  8
0
  6
CONTINUOUS
 62
    0
370
   -2
100
AcDbMText
 10
187.4403041855572
 20
-5.909169116068522
 30
0
 40
2.5
 41
7.777777777777779
 71
    5
 72
    1
  1
77.87
  7
standard
210
0
220
0
230
1
 50
0
 73
    2
 44
1
  0
LINE
  5
B4
100
AcDbEntity
  8
0
  6
ByBlock
 62
    0
370
   -2
100
AcDbLine
 10
148.5052675592939
 20
197.5525594348131
 11
148.5052675592939
 21
-9.034169116068522
  0
LINE
  5
B5
100
AcDbEntity
  8
0
  6
ByBlock
 62
    0
370
   -2
100
AcDbLine
 10
226.3753408118206
 20
15.57052824249692
 11
226.3753408118206
 21
-9.034169116068522
  0
ENDBLK
  5
5E
330
5C
100
AcDbEntity
  8
0
100
AcDbBlockEnd
  0
BLOCK
  5
60
330
5F
100
AcDbEntity
  8
0
100
AcDbBlockBegin
  2
*D3
 70
    1
 10
0
 20
0
  3
*D3
  1

  0
LINE
  5
B6
100
AcDbEntity
  8
0
  6
ByBlock
 62
    0
370
   -2
100
AcDbLine
 10
148.5079480260835
 20
256.8482715016676
 11
43.49216315217031
 21
256.8482715016676
  0
SOLID
  5
B7
100
AcDbEntity
  8
0
  6
ByBlock
 62
    0
370
   -2
100
AcDbTrace
 10
148.5079480260835
 20
256.8482715016676
 30
0
 11
146.0079480260835
 21
256.4319868438948
 31
0
 12
146.0079480260835
 22
257.2645561594405
 32
0
 13
146.0079480260835
 23
257.2645561594405
 33
0
  0
SOLID
  5
B8
100
AcDbEntity
  8
0
  6
ByBlock
 62
    0
370
   -2
100
AcDbTrace
 10
43.49216315217031
 20
256.8482715016676
 30
0
 11
45.99216315217031
 21
257.2645561594405
 31
0
 12
45.99216315217031
 22
256.4319868438948
 32
0
 13
45.99216315217031
 23
256.4319868438948
 33
0
  0
MTEXT
  5
B9
100
AcDbEntity
  8
0
  6
CONTINUOUS
 62
    0
370
   -2
100
AcDbMText
 10
96.0000555891269
 20
258.7232715016676
 30
0
 40
2.5
 41
9.166666666666822
 71
    5
 72
    1
  1
105.02
  7
standard
210
0
220
0
230
1
 50
360
 73
    2
 44
1
  0
LINE
  5
BA
100
AcDbEntity
  8
0
  6
ByBlock
 62
    0
370
   -2
100
AcDbLine
 10
148.5079480260835
 20
198.7971440325028
 11
148.5079480260835
 21
258.0982715016676
  0
LINE
  5
BB
100
AcDbEntity
  8
0
  6
ByBlock
 62
    0
370
   -2
100
AcDbLine
 10
43.49216315217031
 20
219.3772388014869
 11
43.49216315217031
 21
258.0982715016676
  0
ENDBLK
  5
61
330
5F
100
AcDbEntity
  8
0
100
AcDbBlockEnd
  0
BLOCK
  5
63
330
62
100
AcDbEntity
  8
0
100
AcDbBlockBegin
  2
*D23
 70
    1
 10
0
 20
0
  3
*D23
  1

  0
LINE
  5
BC
100
AcDbEntity
  8
0
  6
ByBlock
 62
    0
370
   -2
100
AcDbLine
 10
38.82616019668671
 20
16.18355375001103
 11
38.82616019668671
 21
4.699283999737317
  0
SOLID
  5
BD
100
AcDbEntity
  8
0
  6
ByBlock
 62
    0
370
   -2
100
AcDbTrace
 10
38.82616019668671
 20
16.18355375001103
 30
0
 11
39.24244485445956
 21
13.68355375001103
 31
0
 12
38.40987553891387
 22
13.68355375001103
 32
0
 13
38.40987553891387
 23
13.68355375001103
 33
0
  0
SOLID
  5
BE
100
AcDbEntity
  8
0
  6
ByBlock
 62
    0
370
   -2
100
AcDbTrace
 10
38.82616019668671
 20
4.699283999737317
 30
0
 11
38.40987553891387
 21
7.199283999737317
 31
0
 12
39.24244485445956
 22
7.199283999737317
 32
0
 13
39.24244485445956
 23
7.199283999737317
 33
0
  0
MTEXT
  5
BF
100
AcDbEntity
  8
0
  6
CONTINUOUS
 62
    0
370
   -2
100
AcDbMText
 10
36.95116019668671
 20
10.44141887487417
 30
0
 40
2.5
 41
6.944444444444445
 71
    5
 72
    1
  1
11.48
  7
standard
210
0
220
0
230
1
 50
90
 73
    2
 44
1
  0
LINE
  5
C0
100
AcDbEntity
  8
0
  6
ByBlock
 62
    0
370
   -2
100
AcDbLine
 10
69.99623012059411
 20
16.18355375001103
 11
37.57616019668671
 21
16.18355375001103
  0
LINE
  5
C1
100
AcDbEntity
  8
0
  6
ByBlock
 62
    0
370
   -2
100
AcDbLine
 10
50.1203817993612
 20
4.699283999737316
 11
37.57616019668671
 21
4.699283999737317
  0
ENDBLK
  5
64
330
62
100
AcDbEntity
  8
0
100
AcDbBlockEnd
  0
BLOCK
  5
66
330
65
100
AcDbEntity
  8
0
100
AcDbBlockBegin
  2
*D17
 70
    1
 10
0
 20
0
  3
*D17
  1

  0
LINE
  5
C2
100
AcDbEntity
  8
0
  6
ByBlock
 62
    0
370
   -2
100
AcDbLine
 10
-17.04464616795359
 20
198.2035030910483
 11
-17.04464616795359
 21
218.7579404486459
  0
SOLID
  5
C3
100
AcDbEntity
  8
0
  6
ByBlock
 62
    0
370
   -2
100
AcDbTrace
 10
-17.04464616795359
 20
198.2035030910483
 30
0
 11
-17.46093082572643
 21
200.7035030910483
 31
0
 12
-16.62836151018075
 22
200.7035030910483
 32
0
 13
-16.62836151018075
 23
200.7035030910483
 33
0
  0
SOLID
  5
C4
100
AcDbEntity
  8
0
  6
ByBlock
 62
    0
370
   -2
100
AcDbTrace
 10
-17.04464616795359
 20
218.7579404486459
 30
0
 11
-16.62836151018075
 21
216.2579404486459
 31
0
 12
-17.46093082572643
 22
216.2579404486459
 32
0
 13
-17.46093082572643
 23
216.2579404486459
 33
0
  0
MTEXT
  5
C5
100
AcDbEntity
  8
0
  6
CONTINUOUS
 62
    0
370
   -2
100
AcDbMText
 10
-18.91964616795359
 20
208.4807217698471
 30
0
 40
2.5
 41
7.777777777778088
 71
    5
 72
    1
  1
20.55
  7
standard
210
0
220
0
230
1
 50
90
 73
    2
 44
1
  0
LINE
  5
C6
100
AcDbEntity
  8
0
  6
ByBlock
 62
    0
370
   -2
100
AcDbLine
 10
147.8829480262061
 20
198.2035030910483
 11
-18.29464616795359
 21
198.2035030910483
  0
LINE
  5
C7
100
AcDbEntity
  8
0
  6
ByBlock
 62
    0
370
   -2
100
AcDbLine
 10
42.86716315220618
 20
218.7579404486459
 11
-18.29464616795359
 21
218.7579404486459
  0
ENDBLK
  5
67
330
65
100
AcDbEntity
  8
0
100
AcDbBlockEnd
  0
BLOCK
  5
69
330
68
100
AcDbEntity
  8
0
100
AcDbBlockBegin
  2
*D5
 70
    1
 10
0
 20
0
  3
*D5
  1

  0
LINE
  5
C8
100
AcDbEntity
  8
0
  6
ByBlock
 62
    0
370
   -2
100
AcDbLine
 10
79.52942287992848
 20
23.19467660888349
 11
159.4893201067368
 21
23.19467660888349
  0
SOLID
  5
C9
100
AcDbEntity
  8
0
  6
ByBlock
 62
    0
370
   -2
100
AcDbTrace
 10
79.52942287992848
 20
23.19467660888349
 30
0
 11
82.02942287992848
 21
23.61096126665633
 31
0
 12
82.02942287992848
 22
22.77839195111065
 32
0
 13
82.02942287992848
 23
22.77839195111065
 33
0
  0
SOLID
  5
CA
100
AcDbEntity
  8
0
  6
ByBlock
 62
    0
370
   -2
100
AcDbTrace
 10
159.4893201067368
 20
23.19467660888349
 30
0
 11
156.9893201067368
 21
22.77839195111065
 31
0
 12
156.9893201067368
 22
23.61096126665633
 32
0
 13
156.9893201067368
 23
23.61096126665633
 33
0
  0
MTEXT
  5
CB
100
AcDbEntity
  8
0
  6
CONTINUOUS
 62
    0
370
   -2
100
AcDbMText
 10
119.5093714933327
 20
25.06967660888349
 30
0
 40
2.5
 41
7.777777777777933
 71
    5
 72
    1
  1
79.96
  7
standard
210
0
220
0
230
1
 50
0
 73
    2
 44
1
  0
LINE
  5
CC
100
AcDbEntity
  8
0
  6
ByBlock
 62
    0
370
   -2
100
AcDbLine
 10
79.52942287992848
 20
32.83226446997313
 11
79.52942287992848
 21
21.94467660888349
  0
LINE
  5
CD
100
AcDbEntity
  8
0
  6
ByBlock
 62
    0
370
   -2
100
AcDbLine
 10
159.4893201067368
 20
49.31002423790513
 11
159.4893201067368
 21
21.94467660888349
  0
ENDBLK
  5
6A
330
68
100
AcDbEntity
  8
0
100
AcDbBlockEnd
  0
BLOCK
  5
6C
330
6B
100
AcDbEntity
  8
0
100
AcDbBlockBegin
  2
*D7
 70
    1
 10
0
 20
0
  3
*D7
  1

  0
LINE
  5
CE
100
AcDbEntity
  8
0
  6
ByBlock
 62
    0
370
   -2
100
AcDbLine
 10
148.507948026108
 20
-7.650817582972085
 11
70.62345029948088
 21
-7.650817582972085
  0
SOLID
  5
CF
100
AcDbEntity
  8
0
  6
ByBlock
 62
    0
370
   -2
100
AcDbTrace
 10
148.507948026108
 20
-7.650817582972085
 30
0
 11
146.007948026108
 21
-8.067102240744925
 31
0
 12
146.007948026108
 22
-7.234532925199244
 32
0
 13
146.007948026108
 23
-7.234532925199244
 33
0
  0
SOLID
  5
D0
100
AcDbEntity
  8
0
  6
ByBlock
 62
    0
370
   -2
100
AcDbTrace
 10
70.62345029948088
 20
-7.650817582972085
 30
0
 11
73.12345029948088
 21
-7.234532925199245
 31
0
 12
73.12345029948088
 22
-8.067102240744926
 32
0
 13
73.12345029948088
 23
-8.067102240744926
 33
0
  0
MTEXT
  5
D1
100
AcDbEntity
  8
0
  6
CONTINUOUS
 62
    0
370
   -2
100
AcDbMText
 10
109.5656991627945
 20
-5.775817582972085
 30
0
 40
2.5
 41
7.777777777777779
 71
    5
 72
    1
  1
77.88
  7
standard
210
0
220
0
230
1
 50
360
 73
    2
 44
1
  0
LINE
  5
D2
100
AcDbEntity
  8
0
  6
ByBlock
 62
    0
370
   -2
100
AcDbLine
 10
148.507948026108
 20
197.5670997969604
 11
148.507948026108
 21
-8.900817582972085
  0
LINE
  5
D3
100
AcDbEntity
  8
0
  6
ByBlock
 62
    0
370
   -2
100
AcDbLine
 10
70.62345029948088
 20
15.56767741900664
 11
70.62345029948088
 21
-8.900817582972085
  0
ENDBLK
  5
6D
330
6B
100
AcDbEntity
  8
0
100
AcDbBlockEnd
  0
BLOCK
  5
6F
330
6E
100
AcDbEntity
  8
0
100
AcDbBlockBegin
  2
*D14
 70
    1
 10
0
 20
0
  3
*D14
  1

  0
LINE
  5
D4
100
AcDbEntity
  8
0
  6
ByBlock
 62
    0
370
   -2
100
AcDbLine
 10
313.8318127753687
 20
186.9761555850688
 11
313.8318127753687
 21
137.1844771268217
  0
SOLID
  5
D5
100
AcDbEntity
  8
0
  6
ByBlock
 62
    0
370
   -2
100
AcDbTrace
 10
313.8318127753687
 20
186.9761555850688
 30
0
 11
314.2480974331415
 21
184.4761555850688
 31
0
 12
313.4155281175958
 22
184.4761555850688
 32
0
 13
313.4155281175958
 23
184.4761555850688
 33
0
  0
SOLID
  5
D6
100
AcDbEntity
  8
0
  6
ByBlock
 62
    0
370
   -2
100
AcDbTrace
 10
313.8318127753687
 20
137.1844771268217
 30
0
 11
313.4155281175958
 21
139.6844771268217
 31
0
 12
314.2480974331415
 22
139.6844771268217
 32
0
 13
314.2480974331415
 23
139.6844771268217
 33
0
  0
MTEXT
  5
D7
100
AcDbEntity
  8
0
  6
CONTINUOUS
 62
    0
370
   -2
100
AcDbMText
 10
311.9568127753687
 20
162.0803163559453
 30
0
 40
2.5
 41
8.055555555555557
 71
    5
 72
    1
  1
49.79
  7
standard
210
0
220
0
230
1
 50
90
 73
    2
 44
1
  0
LINE
  5
D8
100
AcDbEntity
  8
0
  6
ByBlock
 62
    0
370
   -2
100
AcDbLine
 10
254.1271291891434
 20
186.9761555850688
 11
315.0818127753687
 21
186.9761555850688
  0
LINE
  5
D9
100
AcDbEntity
  8
0
  6
ByBlock
 62
    0
370
   -2
100
AcDbLine
 10
254.1202246652602
 20
137.1844771268217
 11
315.0818127753687
 21
137.1844771268217
  0
ENDBLK
  5
70
330
6E
100
AcDbEntity
  8
0
100
AcDbBlockEnd
  0
BLOCK
  5
72
330
71
100
AcDbEntity
  8
0
100
AcDbBlockBegin
  2
*D12
 70
    1
 10
0
 20
0
  3
*D12
  1

  0
LINE
  5
DA
100
AcDbEntity
  8
0
  6
ByBlock
 62
    0
370
   -2
100
AcDbLine
 10
125.9978457549206
 20
164.1695328770896
 11
170.9923928859524
 21
164.1695328770896
  0
SOLID
  5
DB
100
AcDbEntity
  8
0
  6
ByBlock
 62
    0
370
   -2
100
AcDbTrace
 10
125.9978457549206
 20
164.1695328770896
 30
0
 11
128.4978457549206
 21
164.5858175348625
 31
0
 12
128.4978457549206
 22
163.7532482193168
 32
0
 13
128.4978457549206
 23
163.7532482193168
 33
0
  0
SOLID
  5
DC
100
AcDbEntity
  8
0
  6
ByBlock
 62
    0
370
   -2
100
AcDbTrace
 10
170.9923928859524
 20
164.1695328770896
 30
0
 11
168.4923928859524
 21
163.7532482193168
 31
0
 12
168.4923928859524
 22
164.5858175348625
 32
0
 13
168.4923928859524
 23
164.5858175348625
 33
0
  0
MTEXT
  5
DD
100
AcDbEntity
  8
0
  6
CONTINUOUS
 62
    0
370
   -2
100
AcDbMText
 10
148.4951193204365
 20
166.0445328770896
 30
0
 40
2.5
 41
8.333333333333334
 71
    5
 72
    1
  1
44.99
  7
standard
210
0
220
0
230
1
 50
0
 73
    2
 44
1
  0
LINE
  5
DE
100
AcDbEntity
  8
0
  6
ByBlock
 62
    0
370
   -2
100
AcDbLine
 10
125.9978457549206
 20
181.072235088125
 11
125.9978457549206
 21
162.9195328770896
  0
LINE
  5
DF
100
AcDbEntity
  8
0
  6
ByBlock
 62
    0
370
   -2
100
AcDbLine
 10
170.9923928859524
 20
181.0608317941753
 11
170.9923928859524
 21
162.9195328770896
  0
ENDBLK
  5
73
330
71
100
AcDbEntity
  8
0
100
AcDbBlockEnd
  0
BLOCK
  5
75
330
74
100
AcDbEntity
  8
0
100
AcDbBlockBegin
  2
*D18
 70
    1
 10
0
 20
0
  3
*D18
  1

  0
LINE
  5
E0
100
AcDbEntity
  8
0
  6
ByBlock
 62
    0
370
   -2
100
AcDbLine
 10
43.55331878888209
 20
4.698157110306564
 11
43.55331878888209
 21
-17.73160601133473
  0
SOLID
  5
E1
100
AcDbEntity
  8
0
  6
ByBlock
 62
    0
370
   -2
100
AcDbTrace
 10
43.55331878888209
 20
4.698157110306564
 30
0
 11
43.96960344665493
 21
2.198157110306564
 31
0
 12
43.13703413110925
 22
2.198157110306564
 32
0
 13
43.13703413110925
 23
2.198157110306564
 33
0
  0
SOLID
  5
E2
100
AcDbEntity
  8
0
  6
ByBlock
 62
    0
370
   -2
100
AcDbTrace
 10
43.55331878888209
 20
-17.73160601133473
 30
0
 11
43.13703413110925
 21
-15.23160601133473
 31
0
 12
43.96960344665493
 22
-15.23160601133473
 32
0
 13
43.96960344665493
 23
-15.23160601133473
 33
0
  0
MTEXT
  5
E3
100
AcDbEntity
  8
0
  6
CONTINUOUS
 62
    0
370
   -2
100
AcDbMText
 10
41.67831878888209
 20
-6.516724450514081
 30
0
 40
2.5
 41
8.05555555555571
 71
    5
 72
    1
  1
22.43
  7
standard
210
0
220
0
230
1
 50
90
 73
    2
 44
1
  0
LINE
  5
E4
100
AcDbEntity
  8
0
  6
ByBlock
 62
    0
370
   -2
100
AcDbLine
 10
50.1196581088937
 20
4.698157110306563
 11
42.30331878888209
 21
4.698157110306564
  0
LINE
  5
E5
100
AcDbEntity
  8
0
  6
ByBlock
 62
    0
370
   -2
100
AcDbLine
 10
50.12367568656592
 20
-17.73160601133473
 11
42.30331878888209
 21
-17.73160601133473
  0
ENDBLK
  5
76
330
74
100
AcDbEntity
  8
0
100
AcDbBlockEnd
  0
BLOCK
  5
78
330
77
100
AcDbEntity
  8
0
100
AcDbBlockBegin
  2
*D13
 70
    1
 10
0
 20
0
  3
*D13
  1

  0
LINE
  5
E6
100
AcDbEntity
  8
0
  6
ByBlock
 62
    0
370
   -2
100
AcDbLine
 10
313.8212928245777
 20
218.7550896250626
 11
313.8212928245777
 21
186.9741093667683
  0
SOLID
  5
E7
100
AcDbEntity
  8
0
  6
ByBlock
 62
    0
370
   -2
100
AcDbTrace
 10
313.8212928245777
 20
218.7550896250626
 30
0
 11
314.2375774823506
 21
216.2550896250626
 31
0
 12
313.4050081668049
 22
216.2550896250626
 32
0
 13
313.4050081668049
 23
216.2550896250626
 33
0
  0
SOLID
  5
E8
100
AcDbEntity
  8
0
  6
ByBlock
 62
    0
370
   -2
100
AcDbTrace
 10
313.8212928245777
 20
186.9741093667683
 30
0
 11
313.4050081668049
 21
189.4741093667683
 31
0
 12
314.2375774823506
 22
189.4741093667683
 32
0
 13
314.2375774823506
 23
189.4741093667683
 33
0
  0
MTEXT
  5
E9
100
AcDbEntity
  8
0
  6
CONTINUOUS
 62
    0
370
   -2
100
AcDbMText
 10
311.9462928245777
 20
202.8645994959155
 30
0
 40
2.5
 41
7.222222222222378
 71
    5
 72
    1
  1
31.78
  7
standard
210
0
220
0
230
1
 50
90
 73
    2
 44
1
  0
LINE
  5
EA
100
AcDbEntity
  8
0
  6
ByBlock
 62
    0
370
   -2
100
AcDbLine
 10
254.1202246652145
 20
218.7550896250626
 11
315.0712928245777
 21
218.7550896250626
  0
LINE
  5
EB
100
AcDbEntity
  8
0
  6
ByBlock
 62
    0
370
   -2
100
AcDbLine
 10
254.1259263121974
 20
186.9741093667683
 11
315.0712928245777
 21
186.9741093667683
  0
ENDBLK
  5
79
330
77
100
AcDbEntity
  8
0
100
AcDbBlockEnd
  0
BLOCK
  5
7B
330
7A
100
AcDbEntity
  8
0
100
AcDbBlockBegin
  2
*D22
 70
    1
 10
0
 20
0
  3
*D22
  1

  0
LINE
  5
EC
100
AcDbEntity
  8
0
  6
ByBlock
 62
    0
370
   -2
100
AcDbLine
 10
42.88119510349502
 20
49.92973164111388
 11
42.88119510349502
 21
16.18355375001087
  0
SOLID
  5
ED
100
AcDbEntity
  8
0
  6
ByBlock
 62
    0
370
   -2
100
AcDbTrace
 10
42.88119510349502
 20
49.92973164111388
 30
0
 11
43.29747976126787
 21
47.42973164111388
 31
0
 12
42.46491044572218
 22
47.42973164111388
 32
0
 13
42.46491044572218
 23
47.42973164111388
 33
0
  0
SOLID
  5
EE
100
AcDbEntity
  8
0
  6
ByBlock
 62
    0
370
   -2
100
AcDbTrace
 10
42.88119510349502
 20
16.18355375001087
 30
0
 11
42.46491044572218
 21
18.68355375001087
 31
0
 12
43.29747976126787
 22
18.68355375001087
 32
0
 13
43.29747976126787
 23
18.68355375001087
 33
0
  0
MTEXT
  5
EF
100
AcDbEntity
  8
0
  6
CONTINUOUS
 62
    0
370
   -2
100
AcDbMText
 10
41.00619510349502
 20
33.05664269556237
 30
0
 40
2.5
 41
7.777777777778244
 71
    5
 72
    1
  1
33.75
  7
standard
210
0
220
0
230
1
 50
90
 73
    2
 44
1
  0
LINE
  5
F0
100
AcDbEntity
  8
0
  6
ByBlock
 62
    0
370
   -2
100
AcDbLine
 10
158.8660252326241
 20
49.92973164111387
 11
41.63119510349502
 21
49.92973164111388
  0
LINE
  5
F1
100
AcDbEntity
  8
0
  6
ByBlock
 62
    0
370
   -2
100
AcDbLine
 10
69.99909903634416
 20
16.18355375001086
 11
41.63119510349502
 21
16.18355375001087
  0
ENDBLK
  5
7C
330
7A
100
AcDbEntity
  8
0
100
AcDbBlockEnd
  0
BLOCK
  5
7E
330
7D
100
AcDbEntity
  8
0
100
AcDbBlockBegin
  2
*D1
 70
    1
 10
0
 20
0
  3
*D1
  1

  0
LINE
  5
F2
100
AcDbEntity
  8
0
  6
ByBlock
 62
    0
370
   -2
100
AcDbLine
 10
148.5350266364466
 20
256.8124435350381
 11
253.4952246650881
 21
256.8124435350381
  0
SOLID
  5
F3
100
AcDbEntity
  8
0
  6
ByBlock
 62
    0
370
   -2
100
AcDbTrace
 10
148.5350266364466
 20
256.8124435350381
 30
0
 11
151.0350266364466
 21
257.2287281928109
 31
0
 12
151.0350266364466
 22
256.3961588772652
 32
0
 13
151.0350266364466
 23
256.3961588772652
 33
0
  0
SOLID
  5
F4
100
AcDbEntity
  8
0
  6
ByBlock
 62
    0
370
   -2
100
AcDbTrace
 10
253.4952246650881
 20
256.8124435350381
 30
0
 11
250.9952246650881
 21
256.3961588772652
 31
0
 12
250.9952246650881
 22
257.2287281928109
 32
0
 13
250.9952246650881
 23
257.2287281928109
 33
0
  0
MTEXT
  5
F5
100
AcDbEntity
  8
0
  6
CONTINUOUS
 62
    0
370
   -2
100
AcDbMText
 10
201.0151256507673
 20
258.6874435350381
 30
0
 40
2.5
 41
9.444444444444599
 71
    5
 72
    1
  1
104.96
  7
standard
210
0
220
0
230
1
 50
0
 73
    2
 44
1
  0
LINE
  5
F6
100
AcDbEntity
  8
0
  6
ByBlock
 62
    0
370
   -2
100
AcDbLine
 10
148.5350266364466
 20
198.8609406916578
 11
148.5350266364466
 21
258.0624435350381
  0
LINE
  5
F7
100
AcDbEntity
  8
0
  6
ByBlock
 62
    0
370
   -2
100
AcDbLine
 10
253.4952246650881
 20
219.3829404484428
 11
253.4952246650881
 21
258.0624435350381
  0
ENDBLK
  5
7F
330
7D
100
AcDbEntity
  8
0
100
AcDbBlockEnd
  0
BLOCK
  5
81
330
80
100
AcDbEntity
  8
0
100
AcDbBlockBegin
  2
*D19
 70
    1
 10
0
 20
0
  3
*D19
  1

  0
LINE
  5
F8
100
AcDbEntity
  8
0
  6
ByBlock
 62
    0
370
   -2
100
AcDbLine
 10
111.7653596939917
 20
181.6972350882263
 11
111.7653596939917
 21
49.93030111637198
  0
SOLID
  5
F9
100
AcDbEntity
  8
0
  6
ByBlock
 62
    0
370
   -2
100
AcDbTrace
 10
111.7653596939917
 20
181.6972350882263
 30
0
 11
112.1816443517645
 21
179.1972350882263
 31
0
 12
111.3490750362189
 22
179.1972350882263
 32
0
 13
111.3490750362189
 23
179.1972350882263
 33
0
  0
SOLID
  5
FA
100
AcDbEntity
  8
0
  6
ByBlock
 62
    0
370
   -2
100
AcDbTrace
 10
111.7653596939917
 20
49.93030111637198
 30
0
 11
111.3490750362189
 21
52.43030111637198
 31
0
 12
112.1816443517645
 22
52.43030111637198
 32
0
 13
112.1816443517645
 23
52.43030111637198
 33
0
  0
MTEXT
  5
FB
100
AcDbEntity
  8
0
  6
CONTINUOUS
 62
    0
370
   -2
100
AcDbMText
 10
109.8903596939917
 20
115.8137681022991
 30
0
 40
2.5
 41
8.611111111111267
 71
    5
 72
    1
  1
131.77
  7
standard
210
0
220
0
230
1
 50
90
 73
    2
 44
1
  0
LINE
  5
FC
100
AcDbEntity
  8
0
  6
ByBlock
 62
    0
370
   -2
100
AcDbLine
 10
125.3699949315015
 20
181.6972350882263
 11
110.5153596939917
 21
181.6972350882263
  0
LINE
  5
FD
100
AcDbEntity
  8
0
  6
ByBlock
 62
    0
370
   -2
100
AcDbLine
 10
158.8599941408998
 20
49.93030111637198
 11
110.5153596939917
 21
49.93030111637198
  0
ENDBLK
  5
82
330
80
100
AcDbEntity
  8
0
100
AcDbBlockEnd
  0
BLOCK
  5
84
330
83
100
AcDbEntity
  8
0
100
AcDbBlockBegin
  2
*D21
 70
    1
 10
0
 20
0
  3
*D21
  1

  0
LINE
  5
FE
100
AcDbEntity
  8
0
  6
ByBlock
 62
    0
370
   -2
100
AcDbLine
 10
184.239569636979
 20
49.93347864189486
 11
184.239569636979
 21
33.45137117428261
  0
SOLID
  5
FF
100
AcDbEntity
  8
0
  6
ByBlock
 62
    0
370
   -2
100
AcDbTrace
 10
184.239569636979
 20
49.93347864189486
 30
0
 11
184.6558542947518
 21
47.43347864189486
 31
0
 12
183.8232849792061
 22
47.43347864189486
 32
0
 13
183.8232849792061
 23
47.43347864189486
 33
0
  0
SOLID
  5
100
100
AcDbEntity
  8
0
  6
ByBlock
 62
    0
370
   -2
100
AcDbTrace
 10
184.239569636979
 20
33.45137117428261
 30
0
 11
183.8232849792061
 21
35.95137117428261
 31
0
 12
184.6558542947518
 22
35.95137117428261
 32
0
 13
184.6558542947518
 23
35.95137117428261
 33
0
  0
MTEXT
  5
101
100
AcDbEntity
  8
0
  6
CONTINUOUS
 62
    0
370
   -2
100
AcDbMText
 10
182.364569636979
 20
41.69242490808873
 30
0
 40
2.5
 41
7.500000000000155
 71
    5
 72
    1
  1
16.48
  7
standard
210
0
220
0
230
1
 50
90
 73
    2
 44
1
  0
LINE
  5
102
100
AcDbEntity
  8
0
  6
ByBlock
 62
    0
370
   -2
100
AcDbLine
 10
160.1166333317358
 20
49.93347864189486
 11
185.489569636979
 21
49.93347864189486
  0
LINE
  5
103
100
AcDbEntity
  8
0
  6
ByBlock
 62
    0
370
   -2
100
AcDbLine
 10
171.6265827468959
 20
33.45137117428261
 11
185.489569636979
 21
33.45137117428261
  0
ENDBLK
  5
85
330
83
100
AcDbEntity
  8
0
100
AcDbBlockEnd
  0
BLOCK
  5
87
330
86
100
AcDbEntity
  8
0
100
AcDbBlockBegin
  2
*D8
 70
    1
 10
0
 20
0
  3
*D8
  1

  0
LINE
  5
104
100
AcDbEntity
  8
0
  6
ByBlock
 62
    0
370
   -2
100
AcDbLine
 10
70.6219788035003
 20
-7.702703238695892
 11
50.74465810886
 21
-7.702703238695892
  0
SOLID
  5
105
100
AcDbEntity
  8
0
  6
ByBlock
 62
    0
370
   -2
100
AcDbTrace
 10
70.6219788035003
 20
-7.702703238695892
 30
0
 11
68.1219788035003
 21
-8.118987896468733
 31
0
 12
68.1219788035003
 22
-7.286418580923051
 32
0
 13
68.1219788035003
 23
-7.286418580923051
 33
0
  0
SOLID
  5
106
100
AcDbEntity
  8
0
  6
ByBlock
 62
    0
370
   -2
100
AcDbTrace
 10
50.74465810886
 20
-7.702703238695892
 30
0
 11
53.24465810886
 21
-7.286418580923052
 31
0
 12
53.24465810886
 22
-8.118987896468733
 32
0
 13
53.24465810886
 23
-8.118987896468733
 33
0
  0
MTEXT
  5
107
100
AcDbEntity
  8
0
  6
CONTINUOUS
 62
    0
370
   -2
100
AcDbMText
 10
60.68331845618015
 20
-5.827703238695892
 30
0
 40
2.5
 41
7.222222222222222
 71
    5
 72
    1
  1
19.88
  7
standard
210
0
220
0
230
1
 50
360
 73
    2
 44
1
  0
LINE
  5
108
100
AcDbEntity
  8
0
  6
ByBlock
 62
    0
370
   -2
100
AcDbLine
 10
70.6219788035003
 20
15.56586090215995
 11
70.6219788035003
 21
-8.952703238695893
  0
LINE
  5
109
100
AcDbEntity
  8
0
  6
ByBlock
 62
    0
370
   -2
100
AcDbLine
 10
50.74465810886
 20
4.070306286814181
 11
50.74465810886
 21
-8.952703238695893
  0
ENDBLK
  5
88
330
86
100
AcDbEntity
  8
0
100
AcDbBlockEnd
  0
BLOCK
  5
8A
330
89
100
AcDbEntity
  8
0
100
AcDbBlockBegin
  2
*D16
 70
    1
 10
0
 20
0
  3
*D16
  1

  0
LINE
  5
10A
100
AcDbEntity
  8
0
  6
ByBlock
 62
    0
370
   -2
100
AcDbLine
 10
320.5671591325125
 20
49.92932259095777
 11
320.5671591325125
 21
137.1819512972341
  0
SOLID
  5
10B
100
AcDbEntity
  8
0
  6
ByBlock
 62
    0
370
   -2
100
AcDbTrace
 10
320.5671591325125
 20
49.92932259095777
 30
0
 11
320.1508744747396
 21
52.42932259095777
 31
0
 12
320.9834437902853
 22
52.42932259095777
 32
0
 13
320.9834437902853
 23
52.42932259095777
 33
0
  0
SOLID
  5
10C
100
AcDbEntity
  8
0
  6
ByBlock
 62
    0
370
   -2
100
AcDbTrace
 10
320.5671591325125
 20
137.1819512972341
 30
0
 11
320.9834437902853
 21
134.6819512972341
 31
0
 12
320.1508744747396
 22
134.6819512972341
 32
0
 13
320.1508744747396
 23
134.6819512972341
 33
0
  0
MTEXT
  5
10D
100
AcDbEntity
  8
0
  6
CONTINUOUS
 62
    0
370
   -2
100
AcDbMText
 10
318.6921591325125
 20
93.55563694409594
 30
0
 40
2.5
 41
7.777777777777933
 71
    5
 72
    1
  1
87.25
  7
standard
210
0
220
0
230
1
 50
90
 73
    2
 44
1
  0
LINE
  5
10E
100
AcDbEntity
  8
0
  6
ByBlock
 62
    0
370
   -2
100
AcDbLine
 10
160.1114692833471
 20
49.92932259095777
 11
321.8171591325125
 21
49.92932259095777
  0
LINE
  5
10F
100
AcDbEntity
  8
0
  6
ByBlock
 62
    0
370
   -2
100
AcDbLine
 10
254.1143747755044
 20
137.1819512972341
 11
321.8171591325125
 21
137.1819512972341
  0
ENDBLK
  5
8B
330
89
100
AcDbEntity
  8
0
100
AcDbBlockEnd
  0
BLOCK
  5
8D
330
8C
100
AcDbEntity
  8
0
100
AcDbBlockBegin
  2
*D6
 70
    1
 10
0
 20
0
  3
*D6
  1

  0
LINE
  5
110
100
AcDbEntity
  8
0
  6
ByBlock
 62
    0
370
   -2
100
AcDbLine
 10
170.9993346411055
 20
12.23735917760489
 11
159.4893201067412
 21
12.23735917760489
  0
SOLID
  5
111
100
AcDbEntity
  8
0
  6
ByBlock
 62
    0
370
   -2
100
AcDbTrace
 10
170.9993346411055
 20
12.23735917760489
 30
0
 11
168.4993346411055
 21
11.82107451983205
 31
0
 12
168.4993346411055
 22
12.65364383537773
 32
0
 13
168.4993346411055
 23
12.65364383537773
 33
0
  0
SOLID
  5
112
100
AcDbEntity
  8
0
  6
ByBlock
 62
    0
370
   -2
100
AcDbTrace
 10
159.4893201067412
 20
12.23735917760489
 30
0
 11
161.9893201067412
 21
12.65364383537773
 31
0
 12
161.9893201067412
 22
11.82107451983205
 32
0
 13
161.9893201067412
 23
11.82107451983205
 33
0
  0
MTEXT
  5
113
100
AcDbEntity
  8
0
  6
CONTINUOUS
 62
    0
370
   -2
100
AcDbMText
 10
165.2443273739234
 20
14.11235917760489
 30
0
 40
2.5
 41
6.111111111111267
 71
    5
 72
    1
  1
11.51
  7
standard
210
0
220
0
230
1
 50
360
 73
    2
 44
1
  0
LINE
  5
114
100
AcDbEntity
  8
0
  6
ByBlock
 62
    0
370
   -2
100
AcDbLine
 10
170.9993346411055
 20
32.81314114600786
 11
170.9993346411055
 21
10.98735917760489
  0
LINE
  5
115
100
AcDbEntity
  8
0
  6
ByBlock
 62
    0
370
   -2
100
AcDbLine
 10
159.4893201067412
 20
49.31002423790651
 11
159.4893201067412
 21
10.98735917760489
  0
ENDBLK
  5
8E
330
8C
100
AcDbEntity
  8
0
100
AcDbBlockEnd
  0
BLOCK
  5
90
330
8F
100
AcDbEntity
  8
0
100
AcDbBlockBegin
  2
*D11
 70
    1
 10
0
 20
0
  3
*D11
  1

  0
LINE
  5
116
100
AcDbEntity
  8
0
  6
ByBlock
 62
    0
370
   -2
100
AcDbLine
 10
206.49369779772
 20
28.18704357321429
 11
246.2512821789723
 21
28.18704357321429
  0
SOLID
  5
117
100
AcDbEntity
  8
0
  6
ByBlock
 62
    0
370
   -2
100
AcDbTrace
 10
206.49369779772
 20
28.18704357321429
 30
0
 11
208.99369779772
 21
28.60332823098713
 31
0
 12
208.99369779772
 22
27.77075891544145
 32
0
 13
208.99369779772
 23
27.77075891544145
 33
0
  0
SOLID
  5
118
100
AcDbEntity
  8
0
  6
ByBlock
 62
    0
370
   -2
100
AcDbTrace
 10
246.2512821789723
 20
28.18704357321429
 30
0
 11
243.7512821789723
 21
27.77075891544145
 31
0
 12
243.7512821789723
 22
28.60332823098713
 32
0
 13
243.7512821789723
 23
28.60332823098713
 33
0
  0
MTEXT
  5
119
100
AcDbEntity
  8
0
  6
CONTINUOUS
 62
    0
370
   -2
100
AcDbMText
 10
226.3724899883462
 20
30.06204357321429
 30
0
 40
2.5
 41
7.777777777778088
 71
    5
 72
    1
  1
39.76
  7
standard
210
0
220
0
230
1
 50
0
 73
    2
 44
1
  0
LINE
  5
11A
100
AcDbEntity
  8
0
  6
ByBlock
 62
    0
370
   -2
100
AcDbLine
 10
206.49369779772
 20
5.320306286814641
 11
206.49369779772
 21
29.43704357321429
  0
LINE
  5
11B
100
AcDbEntity
  8
0
  6
ByBlock
 62
    0
370
   -2
100
AcDbLine
 10
246.2512821789723
 20
5.317455463325442
 11
246.2512821789723
 21
29.43704357321429
  0
ENDBLK
  5
91
330
8F
100
AcDbEntity
  8
0
100
AcDbBlockEnd
  0
ENDSEC
  0
SECTION
  2
ENTITIES
  0
LWPOLYLINE
  5
11C
100
AcDbEntity
  8
0
  6
ByLayer
 62
    7
370
   -1
100
AcDbPolyline
 90
   53
 70
    0
 43
0
 10
43.984997
 20
127.891972
 10
45.434998
 20
128.207471
 10
46.825998
 20
128.726071
 10
48.127996
 20
129.437271
 10
49.316197
 20
130.326573
 10
50.365598
 20
131.375971
 10
51.254897
 20
132.563972
 10
51.966097
 20
133.866371
 10
52.484697
 20
135.256871
 10
52.800196
 20
136.706971
 10
52.904997
 20
138.172873
 10
52.904997
 20
197.787173
 10
74.384298
 20
197.787173
 10
74.996297
 20
197.830971
 10
75.60989600000001
 20
197.964371
 10
76.19829799999999
 20
198.183873
 10
76.749396
 20
198.484772
 10
77.25209599999999
 20
198.86107
 10
77.69609699999999
 20
199.305071
 10
78.07239800000001
 20
199.807771
 10
78.37329699999999
 20
200.358872
 10
78.59279600000001
 20
200.947271
 10
78.726197
 20
201.560873
 10
78.769997
 20
202.172872
 10
78.769997
 20
205.201173
 10
78.726197
 20
205.813172
 10
78.59279600000001
 20
206.427172
 10
78.37329699999999
 20
207.01517
 10
78.07239800000001
 20
207.566173
 10
77.69609699999999
 20
208.069172
 10
77.25209599999999
 20
208.513172
 10
76.749396
 20
208.889171
 10
76.19829799999999
 20
209.190172
 10
75.60989600000001
 20
209.410173
 10
74.996297
 20
209.543173
 10
74.384298
 20
209.587171
 10
52.904997
 20
209.587171
 10
52.904997
 20
217.760172
 10
52.800196
 20
219.226172
 10
52.484697
 20
220.677173
 10
51.966097
 20
222.067171
 10
51.254897
 20
223.369172
 10
50.365598
 20
224.557172
 10
49.316197
 20
225.607172
 10
48.127996
 20
226.496172
 10
46.825998
 20
227.207171
 10
45.434998
 20
227.726172
 10
43.984997
 20
228.041172
 10
42.518996
 20
228.146173
 10
23.104997
 20
228.146173
 10
23.104997
 20
127.787171
 10
42.518996
 20
127.787171
 10
43.984997
 20
127.891972
  0
LWPOLYLINE
  5
11D
100
AcDbEntity
  8
0
  6
ByLayer
 62
    7
370
   -1
100
AcDbPolyline
 90
   51
 70
    0
 43
0
 10
43.307996
 20
217.269173
 10
43.124998
 20
217.304171
 10
42.946997
 20
217.362171
 10
42.777997
 20
217.44117
 10
42.619998
 20
217.541173
 10
42.475997
 20
217.661171
 10
42.347998
 20
217.797171
 10
42.237996
 20
217.948171
 10
42.147998
 20
218.112171
 10
42.078997
 20
218.286172
 10
42.031996
 20
218.467172
 10
42.008995
 20
218.653171
 10
42.008998
 20
218.840171
 10
42.031999
 20
219.025171
 10
42.078997
 20
219.206171
 10
42.147998
 20
219.380173
 10
42.237996
 20
219.544172
 10
42.347998
 20
219.695172
 10
42.475997
 20
219.832171
 10
42.619998
 20
219.951173
 10
42.777997
 20
220.051173
 10
42.946997
 20
220.131172
 10
43.124998
 20
220.189171
 10
43.307996
 20
220.224172
 10
43.494997
 20
220.235179
 10
43.681997
 20
220.224164
 10
43.864998
 20
220.189171
 10
44.042996
 20
220.131172
 10
44.211996
 20
220.051173
 10
44.369998
 20
219.951173
 10
44.513997
 20
219.832171
 10
44.641996
 20
219.695172
 10
44.751998
 20
219.544172
 10
44.841998
 20
219.380173
 10
44.910996
 20
219.206171
 10
44.957997
 20
219.025171
 10
44.980998
 20
218.840171
 10
44.980998
 20
218.653171
 10
44.957997
 20
218.467172
 10
44.910996
 20
218.286172
 10
44.841998
 20
218.112171
 10
44.751998
 20
217.948171
 10
44.641996
 20
217.797171
 10
44.513997
 20
217.661171
 10
44.369998
 20
217.541173
 10
44.211996
 20
217.44117
 10
44.042996
 20
217.362171
 10
43.864998
 20
217.304171
 10
43.681997
 20
217.269173
 10
43.494997
 20
217.257178
 10
43.307996
 20
217.269167
  0
LWPOLYLINE
  5
11E
100
AcDbEntity
  8
0
  6
ByLayer
 62
    7
370
   -1
100
AcDbPolyline
 90
   51
 70
    0
 43
0
 10
43.307996
 20
185.489271
 10
43.124998
 20
185.524371
 10
42.946997
 20
185.582072
 10
42.777997
 20
185.661771
 10
42.619998
 20
185.761971
 10
42.475997
 20
185.881171
 10
42.347998
 20
186.017473
 10
42.237996
 20
186.168871
 10
42.147998
 20
186.332571
 10
42.078997
 20
186.506572
 10
42.031996
 20
186.68777
 10
42.008995
 20
186.873371
 10
42.008998
 20
187.060171
 10
42.031999
 20
187.245772
 10
42.078997
 20
187.426973
 10
42.147998
 20
187.600971
 10
42.237996
 20
187.764671
 10
42.347998
 20
187.916072
 10
42.475997
 20
188.052371
 10
42.619998
 20
188.171571
 10
42.777997
 20
188.271771
 10
42.946997
 20
188.351372
 10
43.124998
 20
188.409171
 10
43.307996
 20
188.444172
 10
43.494997
 20
188.455969
 10
43.681997
 20
188.444175
 10
43.864998
 20
188.409171
 10
44.042996
 20
188.351372
 10
44.211996
 20
188.271771
 10
44.369998
 20
188.171571
 10
44.513997
 20
188.052371
 10
44.641996
 20
187.916072
 10
44.751998
 20
187.764671
 10
44.841998
 20
187.600872
 10
44.910996
 20
187.426973
 10
44.957997
 20
187.245772
 10
44.980998
 20
187.060171
 10
44.980998
 20
186.873371
 10
44.957997
 20
186.68777
 10
44.910996
 20
186.506572
 10
44.841998
 20
186.332673
 10
44.751998
 20
186.168871
 10
44.641996
 20
186.017473
 10
44.513997
 20
185.881171
 10
44.369998
 20
185.761971
 10
44.211996
 20
185.661771
 10
44.042996
 20
185.582171
 10
43.864998
 20
185.524371
 10
43.681997
 20
185.489271
 10
43.494997
 20
185.477559
 10
43.307996
 20
185.489283
  0
LWPOLYLINE
  5
11F
100
AcDbEntity
  8
0
  6
ByLayer
 62
    7
370
   -1
100
AcDbPolyline
 90
   51
 70
    0
 43
0
 10
43.307996
 20
135.709671
 10
43.124998
 20
135.744771
 10
42.946997
 20
135.802472
 10
42.777997
 20
135.882171
 10
42.619998
 20
135.982371
 10
42.475997
 20
136.101571
 10
42.347998
 20
136.237873
 10
42.237996
 20
136.389271
 10
42.147998
 20
136.552971
 10
42.078997
 20
136.726972
 10
42.031996
 20
136.90817
 10
42.008995
 20
137.093771
 10
42.008998
 20
137.280571
 10
42.031999
 20
137.466172
 10
42.078997
 20
137.647372
 10
42.147998
 20
137.821371
 10
42.237996
 20
137.985071
 10
42.347998
 20
138.13637
 10
42.475997
 20
138.272771
 10
42.619998
 20
138.391971
 10
42.777997
 20
138.492171
 10
42.946997
 20
138.571772
 10
43.124998
 20
138.629571
 10
43.307996
 20
138.664572
 10
43.494997
 20
138.676369
 10
43.681997
 20
138.664575
 10
43.864998
 20
138.629571
 10
44.042996
 20
138.571772
 10
44.211996
 20
138.492171
 10
44.369998
 20
138.391971
 10
44.513997
 20
138.272771
 10
44.641996
 20
138.136472
 10
44.751998
 20
137.985071
 10
44.841998
 20
137.821272
 10
44.910996
 20
137.647372
 10
44.957997
 20
137.466172
 10
44.980998
 20
137.280571
 10
44.980998
 20
137.093771
 10
44.957997
 20
136.90817
 10
44.910996
 20
136.726972
 10
44.841998
 20
136.553073
 10
44.751998
 20
136.389271
 10
44.641996
 20
136.237873
 10
44.513997
 20
136.101571
 10
44.369998
 20
135.982371
 10
44.211996
 20
135.882171
 10
44.042996
 20
135.80257
 10
43.864998
 20
135.744771
 10
43.681997
 20
135.709671
 10
43.494997
 20
135.697959
 10
43.307996
 20
135.709683
  0
LWPOLYLINE
  5
120
100
AcDbEntity
  8
0
  6
ByLayer
 62
    7
370
   -1
100
AcDbPolyline
 90
   53
 70
    0
 43
0
 10
273.884997
 20
228.146173
 10
254.470998
 20
228.146173
 10
253.004997
 20
228.041172
 10
251.554996
 20
227.726172
 10
250.163996
 20
227.207171
 10
248.861998
 20
226.496172
 10
247.673797
 20
225.607172
 10
246.624396
 20
224.557172
 10
245.735097
 20
223.369172
 10
245.023897
 20
222.067171
 10
244.505297
 20
220.677173
 10
244.189798
 20
219.226172
 10
244.084997
 20
217.760172
 10
244.084997
 20
209.587171
 10
222.605696
 20
209.587171
 10
221.993697
 20
209.543173
 10
221.380098
 20
209.410173
 10
220.791696
 20
209.190172
 10
220.240598
 20
208.889171
 10
219.737898
 20
208.513172
 10
219.293897
 20
208.069172
 10
218.917596
 20
207.566173
 10
218.616697
 20
207.01517
 10
218.397198
 20
206.427172
 10
218.263797
 20
205.813172
 10
218.219996
 20
205.201173
 10
218.219996
 20
202.172872
 10
218.263797
 20
201.560873
 10
218.397198
 20
200.947271
 10
218.616697
 20
200.358872
 10
218.917596
 20
199.807771
 10
219.293897
 20
199.305071
 10
219.737898
 20
198.86107
 10
220.240598
 20
198.484772
 10
220.791696
 20
198.183873
 10
221.380098
 20
197.964371
 10
221.993697
 20
197.830971
 10
222.605696
 20
197.787173
 10
244.084997
 20
197.787173
 10
244.084997
 20
138.172873
 10
244.189798
 20
136.706971
 10
244.505297
 20
135.256871
 10
245.023897
 20
133.866371
 10
245.735097
 20
132.563972
 10
246.624396
 20
131.375971
 10
247.673797
 20
130.326573
 10
248.861998
 20
129.437271
 10
250.163996
 20
128.726071
 10
251.554996
 20
128.207471
 10
253.004997
 20
127.891972
 10
254.470998
 20
127.787171
 10
273.884997
 20
127.787171
 10
273.884997
 20
228.146173
  0
LWPOLYLINE
  5
121
100
AcDbEntity
  8
0
  6
ByLayer
 62
    7
370
   -1
100
AcDbPolyline
 90
   51
 70
    0
 43
0
 10
253.307997
 20
217.269173
 10
253.124995
 20
217.304171
 10
252.946998
 20
217.362171
 10
252.777998
 20
217.44117
 10
252.619995
 20
217.541173
 10
252.475997
 20
217.661171
 10
252.347998
 20
217.797171
 10
252.237996
 20
217.948171
 10
252.147996
 20
218.112171
 10
252.078998
 20
218.286172
 10
252.031997
 20
218.467172
 10
252.008996
 20
218.653171
 10
252.008996
 20
218.840171
 10
252.031997
 20
219.025171
 10
252.078998
 20
219.206171
 10
252.147996
 20
219.380173
 10
252.237996
 20
219.544172
 10
252.347998
 20
219.695172
 10
252.475997
 20
219.832171
 10
252.619995
 20
219.951173
 10
252.777998
 20
220.051173
 10
252.946998
 20
220.131172
 10
253.124995
 20
220.189171
 10
253.307997
 20
220.224172
 10
253.494997
 20
220.235179
 10
253.681998
 20
220.224164
 10
253.864996
 20
220.189171
 10
254.042997
 20
220.131172
 10
254.211997
 20
220.051173
 10
254.369996
 20
219.951173
 10
254.513997
 20
219.832171
 10
254.641996
 20
219.695172
 10
254.751998
 20
219.544172
 10
254.841996
 20
219.380173
 10
254.910996
 20
219.206171
 10
254.957998
 20
219.025171
 10
254.980999
 20
218.840171
 10
254.980996
 20
218.653171
 10
254.957995
 20
218.467172
 10
254.910996
 20
218.286172
 10
254.841996
 20
218.112171
 10
254.751998
 20
217.948171
 10
254.641996
 20
217.797171
 10
254.513997
 20
217.661171
 10
254.369996
 20
217.541173
 10
254.211997
 20
217.44117
 10
254.042997
 20
217.362171
 10
253.864996
 20
217.304171
 10
253.681998
 20
217.269173
 10
253.494997
 20
217.257178
 10
253.307997
 20
217.269167
  0
LWPOLYLINE
  5
122
100
AcDbEntity
  8
0
  6
ByLayer
 62
    7
370
   -1
100
AcDbPolyline
 90
   51
 70
    0
 43
0
 10
253.307997
 20
185.489271
 10
253.124995
 20
185.524371
 10
252.946998
 20
185.582171
 10
252.777998
 20
185.661771
 10
252.619995
 20
185.761971
 10
252.475997
 20
185.881171
 10
252.347998
 20
186.017473
 10
252.237996
 20
186.168871
 10
252.147996
 20
186.332673
 10
252.078998
 20
186.506572
 10
252.031997
 20
186.68777
 10
252.008996
 20
186.873371
 10
252.008996
 20
187.060171
 10
252.031997
 20
187.245772
 10
252.078998
 20
187.426973
 10
252.147996
 20
187.600872
 10
252.237996
 20
187.764671
 10
252.347998
 20
187.916072
 10
252.475997
 20
188.052371
 10
252.619995
 20
188.171571
 10
252.777998
 20
188.271771
 10
252.946998
 20
188.351372
 10
253.124995
 20
188.409171
 10
253.307997
 20
188.444172
 10
253.494997
 20
188.455969
 10
253.681998
 20
188.444175
 10
253.864996
 20
188.409171
 10
254.042997
 20
188.351372
 10
254.211997
 20
188.271771
 10
254.369996
 20
188.171571
 10
254.513997
 20
188.052371
 10
254.641996
 20
187.916072
 10
254.751998
 20
187.764671
 10
254.841996
 20
187.600971
 10
254.910996
 20
187.426973
 10
254.957998
 20
187.245772
 10
254.980999
 20
187.060171
 10
254.980996
 20
186.873371
 10
254.957995
 20
186.68777
 10
254.910996
 20
186.506572
 10
254.841996
 20
186.332571
 10
254.751998
 20
186.168871
 10
254.641996
 20
186.017473
 10
254.513997
 20
185.881171
 10
254.369996
 20
185.761971
 10
254.211997
 20
185.661771
 10
254.042997
 20
185.582072
 10
253.864996
 20
185.524371
 10
253.681998
 20
185.489271
 10
253.494997
 20
185.477559
 10
253.307997
 20
185.489283
  0
LWPOLYLINE
  5
123
100
AcDbEntity
  8
0
  6
ByLayer
 62
    7
370
   -1
100
AcDbPolyline
 90
   51
 70
    0
 43
0
 10
253.307997
 20
135.709671
 10
253.124995
 20
135.744771
 10
252.946998
 20
135.80257
 10
252.777998
 20
135.882171
 10
252.619995
 20
135.982371
 10
252.475997
 20
136.101571
 10
252.347998
 20
136.237873
 10
252.237996
 20
136.389271
 10
252.147996
 20
136.553073
 10
252.078998
 20
136.726972
 10
252.031997
 20
136.90817
 10
252.008996
 20
137.093771
 10
252.008996
 20
137.280571
 10
252.031997
 20
137.466172
 10
252.078998
 20
137.647372
 10
252.147996
 20
137.821272
 10
252.237996
 20
137.985071
 10
252.347998
 20
138.136472
 10
252.475997
 20
138.272771
 10
252.619995
 20
138.391971
 10
252.777998
 20
138.492171
 10
252.946998
 20
138.571772
 10
253.124995
 20
138.629571
 10
253.307997
 20
138.664572
 10
253.494997
 20
138.676369
 10
253.681998
 20
138.664575
 10
253.864996
 20
138.629571
 10
254.042997
 20
138.571772
 10
254.211997
 20
138.492171
 10
254.369996
 20
138.391971
 10
254.513997
 20
138.272771
 10
254.641996
 20
138.13637
 10
254.751998
 20
137.985071
 10
254.841996
 20
137.821371
 10
254.910996
 20
137.647372
 10
254.957998
 20
137.466172
 10
254.980999
 20
137.280571
 10
254.980996
 20
137.093771
 10
254.957995
 20
136.90817
 10
254.910996
 20
136.726972
 10
254.841996
 20
136.552971
 10
254.751998
 20
136.389271
 10
254.641996
 20
136.237873
 10
254.513997
 20
136.101571
 10
254.369996
 20
135.982371
 10
254.211997
 20
135.882171
 10
254.042997
 20
135.802472
 10
253.864996
 20
135.744771
 10
253.681998
 20
135.709671
 10
253.494997
 20
135.697959
 10
253.307997
 20
135.709683
  0
LWPOLYLINE
  5
124
100
AcDbEntity
  8
0
  6
ByLayer
 62
    7
370
   -1
100
AcDbPolyline
 90
   57
 70
    0
 43
0
 10
165.394998
 20
175.798071
 10
171.365497
 20
175.798071
 10
172.100697
 20
175.890871
 10
172.818397
 20
176.075171
 10
173.507397
 20
176.347972
 10
174.156796
 20
176.704972
 10
174.756298
 20
177.140571
 10
175.296497
 20
177.647772
 10
175.768796
 20
178.218773
 10
176.165897
 20
178.844471
 10
176.481396
 20
179.514971
 10
176.710396
 20
180.219672
 10
176.849196
 20
180.947571
 10
176.895797
 20
181.687171
 10
176.849196
 20
182.426771
 10
176.710396
 20
183.154673
 10
176.481396
 20
183.85937
 10
176.165897
 20
184.529871
 10
175.768796
 20
185.155572
 10
175.296497
 20
185.726572
 10
174.756897
 20
186.233173
 10
152.236647
 20
202.748072
 10
151.656788
 20
203.16937
 10
151.007437
 20
203.526373
 10
150.318436
 20
203.799172
 10
149.600697
 20
203.983471
 10
148.865497
 20
204.076272
 10
148.124497
 20
204.076272
 10
147.389297
 20
203.983471
 10
146.671558
 20
203.799172
 10
145.982557
 20
203.526373
 10
145.333206
 20
203.16937
 10
144.753347
 20
202.748072
 10
122.233097
 20
186.233173
 10
121.693497
 20
185.726572
 10
121.221198
 20
185.155572
 10
120.824097
 20
184.529871
 10
120.508598
 20
183.85937
 10
120.279597
 20
183.154673
 10
120.140798
 20
182.426771
 10
120.094197
 20
181.687171
 10
120.140798
 20
180.947571
 10
120.279597
 20
180.219672
 10
120.508598
 20
179.514971
 10
120.824097
 20
178.844471
 10
121.221198
 20
178.218773
 10
121.693497
 20
177.647772
 10
122.233698
 20
177.140571
 10
122.833198
 20
176.704972
 10
123.482597
 20
176.347972
 10
124.171597
 20
176.075171
 10
124.889297
 20
175.890871
 10
125.624497
 20
175.798071
 10
131.594998
 20
175.798071
 10
131.594998
 20
175.787177
 10
165.394998
 20
175.787171
 10
165.394998
 20
175.798065
  0
LWPOLYLINE
  5
125
100
AcDbEntity
  8
0
  6
ByLayer
 62
    7
370
   -1
100
AcDbPolyline
 90
   51
 70
    0
 43
0
 10
148.495012
 20
196.697973
 10
148.308337
 20
196.709685
 10
148.124621
 20
196.744771
 10
147.946793
 20
196.802573
 10
147.777575
 20
196.882171
 10
147.619678
 20
196.982371
 10
147.475606
 20
197.101573
 10
147.347576
 20
197.237872
 10
147.237608
 20
197.389273
 10
147.147537
 20
197.553072
 10
147.078686
 20
197.726972
 10
147.032167
 20
197.908172
 10
147.008715
 20
198.093773
 10
147.008726
 20
198.28057
 10
147.032178
 20
198.466171
 10
147.078686
 20
198.647372
 10
147.147537
 20
198.821271
 10
147.237608
 20
198.98507
 10
147.347576
 20
199.136471
 10
147.475606
 20
199.272771
 10
147.619647
 20
199.391973
 10
147.777558
 20
199.492173
 10
147.946855
 20
199.571771
 10
148.124621
 20
199.629573
 10
148.308337
 20
199.664571
 10
148.494981
 20
199.676368
 10
148.681657
 20
199.664574
 10
148.865373
 20
199.629573
 10
149.043215
 20
199.571771
 10
149.212373
 20
199.492173
 10
149.370347
 20
199.391973
 10
149.514388
 20
199.272771
 10
149.642446
 20
199.136373
 10
149.752417
 20
198.98507
 10
149.842426
 20
198.821373
 10
149.911308
 20
198.647372
 10
149.957827
 20
198.466171
 10
149.981279
 20
198.28057
 10
149.981268
 20
198.093773
 10
149.957815
 20
197.908172
 10
149.911308
 20
197.726972
 10
149.842426
 20
197.55297
 10
149.752417
 20
197.389273
 10
149.642446
 20
197.237872
 10
149.514388
 20
197.101573
 10
149.370316
 20
196.982371
 10
149.212464
 20
196.882171
 10
149.04317
 20
196.802471
 10
148.865373
 20
196.744771
 10
148.681674
 20
196.709671
 10
148.495012
 20
196.697958
  0
LWPOLYLINE
  5
126
100
AcDbEntity
  8
0
  6
ByLayer
 62
    7
370
   -1
100
AcDbPolyline
 90
   51
 70
    0
 43
0
 10
125.994998
 20
180.197972
 10
125.808297
 20
180.209684
 10
125.624598
 20
180.244773
 10
125.446798
 20
180.302572
 10
125.277598
 20
180.382172
 10
125.119697
 20
180.482373
 10
124.975597
 20
180.601572
 10
124.847598
 20
180.737871
 10
124.737597
 20
180.889272
 10
124.647497
 20
181.053071
 10
124.578697
 20
181.226971
 10
124.532198
 20
181.408172
 10
124.508689
 20
181.593772
 10
124.508697
 20
181.780572
 10
124.532207
 20
181.966173
 10
124.578697
 20
182.147371
 10
124.647497
 20
182.321271
 10
124.737597
 20
182.485072
 10
124.847598
 20
182.63647
 10
124.975597
 20
182.772772
 10
125.119598
 20
182.891972
 10
125.277598
 20
182.992172
 10
125.446897
 20
183.071773
 10
125.624598
 20
183.129572
 10
125.808297
 20
183.16457
 10
125.994998
 20
183.176367
 10
126.181697
 20
183.164576
 10
126.365398
 20
183.129572
 10
126.543198
 20
183.071773
 10
126.712396
 20
182.992172
 10
126.870398
 20
182.891972
 10
127.014396
 20
182.772772
 10
127.142497
 20
182.636372
 10
127.252397
 20
182.485072
 10
127.342398
 20
182.321372
 10
127.411297
 20
182.147371
 10
127.457798
 20
181.966173
 10
127.481307
 20
181.780572
 10
127.481296
 20
181.593772
 10
127.457787
 20
181.408172
 10
127.411297
 20
181.226971
 10
127.342398
 20
181.052972
 10
127.252397
 20
180.889272
 10
127.142497
 20
180.737871
 10
127.014396
 20
180.601572
 10
126.870296
 20
180.482373
 10
126.712497
 20
180.382172
 10
126.543198
 20
180.302473
 10
126.365398
 20
180.244773
 10
126.181697
 20
180.209673
 10
125.994998
 20
180.19796
  0
LWPOLYLINE
  5
127
100
AcDbEntity
  8
0
  6
ByLayer
 62
    7
370
   -1
100
AcDbPolyline
 90
   51
 70
    0
 43
0
 10
170.994996
 20
180.197972
 10
170.808297
 20
180.209684
 10
170.624596
 20
180.244773
 10
170.446796
 20
180.302572
 10
170.277598
 20
180.382172
 10
170.119698
 20
180.482373
 10
169.975598
 20
180.601572
 10
169.847596
 20
180.737871
 10
169.737597
 20
180.889272
 10
169.647497
 20
181.053071
 10
169.578697
 20
181.226971
 10
169.532198
 20
181.408172
 10
169.508689
 20
181.593772
 10
169.508698
 20
181.780572
 10
169.532207
 20
181.966173
 10
169.578697
 20
182.147371
 10
169.647497
 20
182.321271
 10
169.737597
 20
182.485072
 10
169.847596
 20
182.63647
 10
169.975598
 20
182.772772
 10
170.119596
 20
182.891972
 10
170.277496
 20
182.992172
 10
170.446796
 20
183.071773
 10
170.624596
 20
183.129572
 10
170.808297
 20
183.16457
 10
170.994996
 20
183.176367
 10
171.181697
 20
183.164576
 10
171.365398
 20
183.129572
 10
171.543198
 20
183.071773
 10
171.712396
 20
182.992172
 10
171.870398
 20
182.891972
 10
172.014396
 20
182.772772
 10
172.142398
 20
182.636372
 10
172.252397
 20
182.485072
 10
172.342398
 20
182.321372
 10
172.411297
 20
182.147371
 10
172.457796
 20
181.966173
 10
172.481305
 20
181.780572
 10
172.481296
 20
181.593772
 10
172.457787
 20
181.408172
 10
172.411297
 20
181.226971
 10
172.342398
 20
181.052972
 10
172.252397
 20
180.889272
 10
172.142398
 20
180.737871
 10
172.014396
 20
180.601572
 10
171.870297
 20
180.482373
 10
171.712498
 20
180.382172
 10
171.543198
 20
180.302473
 10
171.365398
 20
180.244773
 10
171.181697
 20
180.209673
 10
170.994996
 20
180.19796
  0
LWPOLYLINE
  5
128
100
AcDbEntity
  8
0
  6
ByLayer
 62
    7
370
   -1
100
AcDbPolyline
 90
   38
 70
    0
 43
0
 10
165.394998
 20
27.548058
 10
171.365497
 20
27.548058
 10
172.100697
 20
27.640881
 10
172.818397
 20
27.825172
 10
173.507397
 20
28.097968
 10
174.156796
 20
28.454979
 10
174.756298
 20
28.890561
 10
175.296497
 20
29.397771
 10
175.768796
 20
29.968763
 10
176.165897
 20
30.594478
 10
176.481396
 20
31.264981
 10
176.710396
 20
31.969662
 10
176.849196
 20
32.69757
 10
176.895797
 20
33.437161
 10
176.849196
 20
34.176781
 10
176.710396
 20
34.90466
 10
176.481396
 20
35.609369
 10
176.165897
 20
36.279873
 10
175.777697
 20
36.891674
 10
164.263296
 20
53.412286
 10
163.796497
 20
53.976561
 10
163.256296
 20
54.48377
 10
162.656797
 20
54.91938
 10
162.007398
 20
55.276363
 10
161.318397
 20
55.549159
 10
160.600698
 20
55.733479
 10
159.865497
 20
55.826273
 10
159.124498
 20
55.826273
 10
158.389286
 20
55.733479
 10
157.671536
 20
55.549159
 10
156.982547
 20
55.276363
 10
156.333198
 20
54.91938
 10
155.733677
 20
54.48377
 10
155.193498
 20
53.976561
 10
154.724027
 20
53.409068
 10
145.342788
 20
39.337158
 10
111.594996
 20
39.337158
 10
111.594996
 20
39.326151
  0
LWPOLYLINE
  5
129
100
AcDbEntity
  8
0
  6
ByLayer
 62
    7
370
   -1
100
AcDbPolyline
 90
   28
 70
    0
 43
0
 10
111.594996
 20
39.326264
 10
79.16529800000001
 20
39.326264
 10
78.430097
 20
39.233469
 10
77.71239799999999
 20
39.049178
 10
77.023397
 20
38.776382
 10
76.373998
 20
38.419371
 10
75.774496
 20
37.983761
 10
75.234298
 20
37.47658
 10
74.761996
 20
36.905559
 10
74.364898
 20
36.279873
 10
74.049396
 20
35.609369
 10
73.820398
 20
34.90466
 10
73.68149699999999
 20
34.176781
 10
73.634998
 20
33.437161
 10
73.68149699999999
 20
32.69757
 10
73.820398
 20
31.969662
 10
74.049396
 20
31.264981
 10
74.364898
 20
30.594478
 10
74.761996
 20
29.968763
 10
75.234298
 20
29.397771
 10
75.774496
 20
28.890561
 10
76.373998
 20
28.454979
 10
77.023397
 20
28.097968
 10
77.71239799999999
 20
27.825172
 10
78.430097
 20
27.640881
 10
79.16529800000001
 20
27.548058
 10
111.594996
 20
27.548058
 10
111.594996
 20
27.537052
  0
LWPOLYLINE
  5
12A
100
AcDbEntity
  8
0
  6
ByLayer
 62
    7
370
   -1
100
AcDbPolyline
 90
    3
 70
    0
 43
0
 10
111.594996
 20
27.537164
 10
165.394998
 20
27.537164
 10
165.394998
 20
27.548171
  0
LWPOLYLINE
  5
12B
100
AcDbEntity
  8
0
  6
ByLayer
 62
    7
370
   -1
100
AcDbPolyline
 90
   26
 70
    0
 43
0
 10
159.494996
 20
48.447968
 10
159.308298
 20
48.459822
 10
159.124596
 20
48.494761
 10
158.946796
 20
48.55256
 10
158.777596
 20
48.632175
 10
158.619698
 20
48.732364
 10
158.475587
 20
48.851574
 10
158.347568
 20
48.98786
 10
158.237597
 20
49.139272
 10
158.147526
 20
49.303074
 10
158.078678
 20
49.476979
 10
158.032156
 20
49.658166
 10
158.008704
 20
49.843783
 10
158.008718
 20
50.030558
 10
158.032171
 20
50.216175
 10
158.078678
 20
50.397362
 10
158.147526
 20
50.571267
 10
158.237597
 20
50.735069
 10
158.347568
 20
50.886481
 10
158.475587
 20
51.022766
 10
158.619596
 20
51.141977
 10
158.777497
 20
51.242166
 10
158.946796
 20
51.321866
 10
159.124596
 20
51.37958
 10
159.308298
 20
51.41466
 10
159.494996
 20
51.426514
  0
LWPOLYLINE
  5
12C
100
AcDbEntity
  8
0
  6
ByLayer
 62
    7
370
   -1
100
AcDbPolyline
 90
    2
 70
    0
 43
0
 10
159.494996
 20
51.426372
 10
159.681697
 20
51.414519
  0
LWPOLYLINE
  5
12D
100
AcDbEntity
  8
0
  6
ByLayer
 62
    7
370
   -1
100
AcDbPolyline
 90
   25
 70
    0
 43
0
 10
159.681697
 20
51.41466
 10
159.865396
 20
51.37958
 10
160.043196
 20
51.321781
 10
160.212397
 20
51.242166
 10
160.370396
 20
51.141977
 10
160.514397
 20
51.022766
 10
160.642396
 20
50.886481
 10
160.752398
 20
50.735069
 10
160.842398
 20
50.57138
 10
160.911297
 20
50.397362
 10
160.957796
 20
50.216175
 10
160.981305
 20
50.030558
 10
160.981297
 20
49.843783
 10
160.957788
 20
49.658166
 10
160.911297
 20
49.476979
 10
160.842398
 20
49.302961
 10
160.752398
 20
49.139272
 10
160.642396
 20
48.987972
 10
160.514397
 20
48.851574
 10
160.370297
 20
48.732364
 10
160.212498
 20
48.632175
 10
160.043196
 20
48.55256
 10
159.865396
 20
48.494761
 10
159.681697
 20
48.459765
 10
159.494996
 20
48.447912
  0
LWPOLYLINE
  5
12E
100
AcDbEntity
  8
0
  6
ByLayer
 62
    7
370
   -1
100
AcDbPolyline
 90
   26
 70
    0
 43
0
 10
79.535796
 20
31.947959
 10
79.349098
 20
31.959812
 10
79.165396
 20
31.99478
 10
78.987596
 20
32.052579
 10
78.81839600000001
 20
32.132166
 10
78.66039600000001
 20
32.232383
 10
78.516398
 20
32.351565
 10
78.388396
 20
32.487963
 10
78.278397
 20
32.639262
 10
78.188298
 20
32.803064
 10
78.11949799999999
 20
32.97697
 10
78.072996
 20
33.158072
 10
78.049487
 20
33.343774
 10
78.049498
 20
33.530577
 10
78.073007
 20
33.716279
 10
78.11949799999999
 20
33.897381
 10
78.188298
 20
34.071258
 10
78.278397
 20
34.23506
 10
78.388396
 20
34.386472
 10
78.516398
 20
34.522785
 10
78.660498
 20
34.641968
 10
78.818297
 20
34.742185
 10
78.987596
 20
34.821772
 10
79.165396
 20
34.879571
 10
79.349098
 20
34.914679
 10
79.535796
 20
34.92625
  0
LWPOLYLINE
  5
12F
100
AcDbEntity
  8
0
  6
ByLayer
 62
    7
370
   -1
100
AcDbPolyline
 90
    2
 70
    0
 43
0
 10
79.535796
 20
34.926363
 10
79.722497
 20
34.914792
  0
LWPOLYLINE
  5
130
100
AcDbEntity
  8
0
  6
ByLayer
 62
    7
370
   -1
100
AcDbPolyline
 90
   25
 70
    0
 43
0
 10
79.722497
 20
34.914679
 10
79.90619599999999
 20
34.879571
 10
80.083996
 20
34.821884
 10
80.253298
 20
34.742185
 10
80.411196
 20
34.641968
 10
80.55519700000001
 20
34.522785
 10
80.683196
 20
34.386472
 10
80.793198
 20
34.23506
 10
80.883297
 20
34.071258
 10
80.95209699999999
 20
33.897381
 10
80.99859600000001
 20
33.716279
 10
81.022105
 20
33.530577
 10
81.022097
 20
33.343774
 10
80.998588
 20
33.158072
 10
80.95209699999999
 20
32.97697
 10
80.883297
 20
32.803064
 10
80.793198
 20
32.639262
 10
80.683196
 20
32.487963
 10
80.55519700000001
 20
32.351565
 10
80.411097
 20
32.232383
 10
80.253197
 20
32.132166
 10
80.083996
 20
32.052579
 10
79.90619599999999
 20
31.99478
 10
79.722497
 20
31.959784
 10
79.535796
 20
31.947931
  0
LWPOLYLINE
  5
131
100
AcDbEntity
  8
0
  6
ByLayer
 62
    7
370
   -1
100
AcDbPolyline
 90
   26
 70
    0
 43
0
 10
170.994996
 20
31.947959
 10
170.808297
 20
31.959812
 10
170.624596
 20
31.99478
 10
170.446796
 20
32.052579
 10
170.277598
 20
32.132166
 10
170.119698
 20
32.232383
 10
169.975598
 20
32.351565
 10
169.847596
 20
32.487878
 10
169.737597
 20
32.639262
 10
169.647497
 20
32.803064
 10
169.578697
 20
32.97697
 10
169.532198
 20
33.158184
 10
169.508689
 20
33.343774
 10
169.508698
 20
33.530577
 10
169.532207
 20
33.716166
 10
169.578697
 20
33.897381
 10
169.647497
 20
34.071258
 10
169.737597
 20
34.23506
 10
169.847596
 20
34.386472
 10
169.975598
 20
34.522785
 10
170.119596
 20
34.641968
 10
170.277496
 20
34.742185
 10
170.446796
 20
34.821884
 10
170.624596
 20
34.879571
 10
170.808297
 20
34.914679
 10
170.994996
 20
34.92625
  0
LWPOLYLINE
  5
132
100
AcDbEntity
  8
0
  6
ByLayer
 62
    7
370
   -1
100
AcDbPolyline
 90
    2
 70
    0
 43
0
 10
170.994996
 20
34.926363
 10
171.181697
 20
34.914792
  0
LWPOLYLINE
  5
133
100
AcDbEntity
  8
0
  6
ByLayer
 62
    7
370
   -1
100
AcDbPolyline
 90
   25
 70
    0
 43
0
 10
171.181697
 20
34.914679
 10
171.365398
 20
34.879571
 10
171.543198
 20
34.821772
 10
171.712396
 20
34.742185
 10
171.870398
 20
34.641968
 10
172.014396
 20
34.522785
 10
172.142398
 20
34.386472
 10
172.252397
 20
34.23506
 10
172.342398
 20
34.071371
 10
172.411297
 20
33.897381
 10
172.457796
 20
33.716166
 10
172.481305
 20
33.530577
 10
172.481296
 20
33.343774
 10
172.457787
 20
33.158184
 10
172.411297
 20
32.97697
 10
172.342398
 20
32.80298
 10
172.252397
 20
32.639262
 10
172.142398
 20
32.487963
 10
172.014396
 20
32.351565
 10
171.870297
 20
32.232383
 10
171.712498
 20
32.132166
 10
171.543198
 20
32.052579
 10
171.365398
 20
31.99478
 10
171.181697
 20
31.959784
 10
170.994996
 20
31.947931
  0
LWPOLYLINE
  5
134
100
AcDbEntity
  8
0
  6
ByLayer
 62
    7
370
   -1
100
AcDbPolyline
 90
   57
 70
    0
 43
0
 10
84.89499600000001
 20
-1.201849
 10
90.865497
 20
-1.201849
 10
91.600697
 20
-1.108829
 10
92.318496
 20
-0.924848
 10
93.007496
 20
-0.651854
 10
93.656796
 20
-0.294843
 10
94.256298
 20
0.140146
 10
94.796497
 20
0.648146
 10
95.26879599999999
 20
1.219166
 10
95.665897
 20
1.844147
 10
95.981396
 20
2.515159
 10
96.210397
 20
3.22015
 10
96.349298
 20
3.947154
 10
96.395797
 20
4.687169
 10
96.349298
 20
5.426761
 10
96.210397
 20
6.154668
 10
95.981396
 20
6.859349
 10
95.665897
 20
7.529853
 10
95.26879599999999
 20
8.155567
 10
94.796497
 20
8.726559
 10
94.256298
 20
9.233769000000001
 10
93.660397
 20
9.666755
 10
73.763598
 20
21.179361
 10
73.132498
 20
21.526353
 10
72.44349800000001
 20
21.799149
 10
71.725697
 20
21.983469
 10
70.990497
 20
22.076263
 10
70.24949700000001
 20
22.076263
 10
69.514297
 20
21.983469
 10
68.79659700000001
 20
21.799149
 10
68.107597
 20
21.526353
 10
67.476398
 20
21.179361
 10
47.579997
 20
9.666755
 10
46.983997
 20
9.233769000000001
 10
46.443996
 20
8.726559
 10
45.970997
 20
8.155567
 10
45.573998
 20
7.529853
 10
45.258998
 20
6.859349
 10
45.029998
 20
6.154668
 10
44.890998
 20
5.426761
 10
44.843996
 20
4.687169
 10
44.890998
 20
3.947154
 10
45.029998
 20
3.22015
 10
45.258998
 20
2.515159
 10
45.573998
 20
1.844147
 10
45.970997
 20
1.219166
 10
46.443996
 20
0.648146
 10
46.983997
 20
0.140146
 10
47.582997
 20
-0.294843
 10
48.232997
 20
-0.651854
 10
48.921597
 20
-0.924848
 10
49.639296
 20
-1.108829
 10
50.374496
 20
-1.201849
 10
56.344998
 20
-1.201849
 10
56.344998
 20
-1.212856
 10
84.89499600000001
 20
-1.212856
 10
84.89499600000001
 20
-1.201849
  0
LWPOLYLINE
  5
135
100
AcDbEntity
  8
0
  6
ByLayer
 62
    7
370
   -1
100
AcDbPolyline
 90
   26
 70
    0
 43
0
 10
70.619998
 20
14.697958
 10
70.433297
 20
14.709812
 10
70.24959800000001
 20
14.744751
 10
70.071798
 20
14.80255
 10
69.902598
 20
14.882165
 10
69.744697
 20
14.982354
 10
69.60059699999999
 20
15.101564
 10
69.472598
 20
15.237849
 10
69.36259699999999
 20
15.389262
 10
69.272497
 20
15.553063
 10
69.20369700000001
 20
15.726969
 10
69.15719799999999
 20
15.908155
 10
69.133689
 20
16.093745
 10
69.133697
 20
16.280548
 10
69.157207
 20
16.466165
 10
69.20369700000001
 20
16.647352
 10
69.272497
 20
16.821257
 10
69.36259699999999
 20
16.985059
 10
69.472598
 20
17.136471
 10
69.60059699999999
 20
17.272756
 10
69.744598
 20
17.391967
 10
69.902598
 20
17.492156
 10
70.07189700000001
 20
17.571855
 10
70.24959800000001
 20
17.62957
 10
70.433297
 20
17.66465
 10
70.619998
 20
17.676221
  0
LWPOLYLINE
  5
136
100
AcDbEntity
  8
0
  6
ByLayer
 62
    7
370
   -1
100
AcDbPolyline
 90
    2
 70
    0
 43
0
 10
70.619998
 20
17.676362
 10
70.806697
 20
17.664791
  0
LWPOLYLINE
  5
137
100
AcDbEntity
  8
0
  6
ByLayer
 62
    7
370
   -1
100
AcDbPolyline
 90
   25
 70
    0
 43
0
 10
70.806697
 20
17.66465
 10
70.990398
 20
17.62957
 10
71.168198
 20
17.571771
 10
71.337396
 20
17.492156
 10
71.49539799999999
 20
17.391967
 10
71.639396
 20
17.272756
 10
71.76749700000001
 20
17.136471
 10
71.877397
 20
16.985059
 10
71.967398
 20
16.82137
 10
72.036297
 20
16.647352
 10
72.082798
 20
16.466165
 10
72.106307
 20
16.280548
 10
72.106296
 20
16.093745
 10
72.082787
 20
15.908155
 10
72.036297
 20
15.726969
 10
71.967398
 20
15.552951
 10
71.877397
 20
15.389262
 10
71.76749700000001
 20
15.237962
 10
71.639396
 20
15.101564
 10
71.495296
 20
14.982354
 10
71.337497
 20
14.882165
 10
71.168198
 20
14.80255
 10
70.990398
 20
14.744751
 10
70.806697
 20
14.709755
 10
70.619998
 20
14.697902
  0
LWPOLYLINE
  5
138
100
AcDbEntity
  8
0
  6
ByLayer
 62
    7
370
   -1
100
AcDbPolyline
 90
    2
 70
    0
 43
0
 10
50.744998
 20
3.198165
 10
50.558296
 20
3.210018
  0
LWPOLYLINE
  5
139
100
AcDbEntity
  8
0
  6
ByLayer
 62
    7
370
   -1
100
AcDbPolyline
 90
   25
 70
    0
 43
0
 10
50.558296
 20
3.210159
 10
50.374598
 20
3.245155
 10
50.196798
 20
3.302164
 10
50.027597
 20
3.382145
 10
49.869697
 20
3.482165
 10
49.725597
 20
3.60115
 10
49.597598
 20
3.738169
 10
49.487596
 20
3.889158
 10
49.397497
 20
4.053157
 10
49.328697
 20
4.226949
 10
49.282198
 20
4.408164
 10
49.258688
 20
4.593754
 10
49.258697
 20
4.780557
 10
49.282206
 20
4.966146
 10
49.328697
 20
5.147361
 10
49.397497
 20
5.321266
 10
49.487596
 20
5.485068
 10
49.597598
 20
5.636452
 10
49.725597
 20
5.772765
 10
49.869598
 20
5.891948
 10
50.027597
 20
5.992165
 10
50.196897
 20
6.071864
 10
50.374598
 20
6.129551
 10
50.558296
 20
6.164659
 10
50.744998
 20
6.176512
  0
LWPOLYLINE
  5
13A
100
AcDbEntity
  8
0
  6
ByLayer
 62
    7
370
   -1
100
AcDbPolyline
 90
    2
 70
    0
 43
0
 10
50.744998
 20
6.176371
 10
50.931696
 20
6.164518
  0
LWPOLYLINE
  5
13B
100
AcDbEntity
  8
0
  6
ByLayer
 62
    7
370
   -1
100
AcDbPolyline
 90
   25
 70
    0
 43
0
 10
50.931696
 20
6.164659
 10
51.115397
 20
6.129551
 10
51.293197
 20
6.071751
 10
51.462398
 20
5.992165
 10
51.620397
 20
5.891948
 10
51.764398
 20
5.772765
 10
51.892496
 20
5.636452
 10
52.002396
 20
5.485068
 10
52.092397
 20
5.321351
 10
52.161296
 20
5.147361
 10
52.207798
 20
4.966146
 10
52.231307
 20
4.780557
 10
52.231298
 20
4.593754
 10
52.207789
 20
4.408164
 10
52.161296
 20
4.226949
 10
52.092397
 20
4.053157
 10
52.002396
 20
3.889158
 10
51.892496
 20
3.738169
 10
51.764398
 20
3.60115
 10
51.620296
 20
3.482165
 10
51.462497
 20
3.382145
 10
51.293197
 20
3.302164
 10
51.115397
 20
3.245155
 10
50.931696
 20
3.210159
 10
50.744998
 20
3.198306
  0
LWPOLYLINE
  5
13C
100
AcDbEntity
  8
0
  6
ByLayer
 62
    7
370
   -1
100
AcDbPolyline
 90
    2
 70
    0
 43
0
 10
90.494996
 20
3.198165
 10
90.308297
 20
3.210018
  0
LWPOLYLINE
  5
13D
100
AcDbEntity
  8
0
  6
ByLayer
 62
    7
370
   -1
100
AcDbPolyline
 90
   25
 70
    0
 43
0
 10
90.308297
 20
3.210159
 10
90.124596
 20
3.245155
 10
89.94679600000001
 20
3.302164
 10
89.777598
 20
3.382145
 10
89.619698
 20
3.482165
 10
89.47559800000001
 20
3.60115
 10
89.347596
 20
3.738169
 10
89.23759699999999
 20
3.889158
 10
89.147498
 20
4.053157
 10
89.07869700000001
 20
4.226949
 10
89.032196
 20
4.408164
 10
89.00868699999999
 20
4.593754
 10
89.008698
 20
4.780557
 10
89.032207
 20
4.966146
 10
89.07869700000001
 20
5.147361
 10
89.147498
 20
5.321266
 10
89.23759699999999
 20
5.485068
 10
89.347596
 20
5.636452
 10
89.47559800000001
 20
5.772765
 10
89.619596
 20
5.891948
 10
89.777598
 20
5.992165
 10
89.946898
 20
6.071864
 10
90.124596
 20
6.129551
 10
90.308297
 20
6.164659
 10
90.494996
 20
6.176512
  0
LWPOLYLINE
  5
13E
100
AcDbEntity
  8
0
  6
ByLayer
 62
    7
370
   -1
100
AcDbPolyline
 90
    2
 70
    0
 43
0
 10
90.494996
 20
6.176371
 10
90.681697
 20
6.164518
  0
LWPOLYLINE
  5
13F
100
AcDbEntity
  8
0
  6
ByLayer
 62
    7
370
   -1
100
AcDbPolyline
 90
   25
 70
    0
 43
0
 10
90.681697
 20
6.164659
 10
90.865398
 20
6.129551
 10
91.043198
 20
6.071751
 10
91.212396
 20
5.992165
 10
91.37039799999999
 20
5.891948
 10
91.514397
 20
5.772765
 10
91.64249700000001
 20
5.636452
 10
91.752397
 20
5.485068
 10
91.842398
 20
5.321351
 10
91.911297
 20
5.147361
 10
91.957796
 20
4.966146
 10
91.98130500000001
 20
4.780557
 10
91.981297
 20
4.593754
 10
91.957787
 20
4.408164
 10
91.911297
 20
4.226949
 10
91.842398
 20
4.053157
 10
91.752397
 20
3.889158
 10
91.64249700000001
 20
3.738169
 10
91.514397
 20
3.60115
 10
91.37029699999999
 20
3.482165
 10
91.212498
 20
3.382145
 10
91.043198
 20
3.302164
 10
90.865398
 20
3.245155
 10
90.681697
 20
3.210159
 10
90.494996
 20
3.198306
  0
LWPOLYLINE
  5
140
100
AcDbEntity
  8
0
  6
ByLayer
 62
    7
370
   -1
100
AcDbPolyline
 90
   57
 70
    0
 43
0
 10
240.644996
 20
-1.201849
 10
246.615498
 20
-1.201849
 10
247.350698
 20
-1.108829
 10
248.068397
 20
-0.924848
 10
248.756997
 20
-0.651854
 10
249.406997
 20
-0.294843
 10
250.005997
 20
0.140146
 10
250.545998
 20
0.648146
 10
251.018997
 20
1.219166
 10
251.415996
 20
1.844147
 10
251.730995
 20
2.515159
 10
251.959996
 20
3.22015
 10
252.098996
 20
3.947154
 10
252.145998
 20
4.687169
 10
252.098996
 20
5.426761
 10
251.959996
 20
6.154668
 10
251.730995
 20
6.859349
 10
251.415996
 20
7.529853
 10
251.018997
 20
8.155567
 10
250.545998
 20
8.726559
 10
250.005997
 20
9.233769000000001
 10
249.409997
 20
9.666755
 10
229.513598
 20
21.179361
 10
228.882397
 20
21.526353
 10
228.193397
 20
21.799149
 10
227.475697
 20
21.983469
 10
226.740497
 20
22.076263
 10
225.999497
 20
22.076263
 10
225.264297
 20
21.983469
 10
224.546496
 20
21.799149
 10
223.857498
 20
21.526353
 10
223.226396
 20
21.179361
 10
203.329596
 20
9.666755
 10
202.733698
 20
9.233769000000001
 10
202.193497
 20
8.726559
 10
201.721198
 20
8.155567
 10
201.324097
 20
7.529853
 10
201.008598
 20
6.859349
 10
200.779597
 20
6.154668
 10
200.640696
 20
5.426761
 10
200.594197
 20
4.687169
 10
200.640696
 20
3.947154
 10
200.779597
 20
3.22015
 10
201.008598
 20
2.515159
 10
201.324097
 20
1.844147
 10
201.721198
 20
1.219166
 10
202.193497
 20
0.648146
 10
202.733698
 20
0.140146
 10
203.333198
 20
-0.294843
 10
203.982498
 20
-0.651854
 10
204.671498
 20
-0.924848
 10
205.389297
 20
-1.108829
 10
206.124497
 20
-1.201849
 10
212.094998
 20
-1.201849
 10
212.094998
 20
-1.212856
 10
240.644996
 20
-1.212856
 10
240.644996
 20
-1.201849
  0
LWPOLYLINE
  5
141
100
AcDbEntity
  8
0
  6
ByLayer
 62
    7
370
   -1
100
AcDbPolyline
 90
   25
 70
    0
 43
0
 10
226.183297
 20
14.709755
 10
225.999596
 20
14.744751
 10
225.821796
 20
14.80255
 10
225.652497
 20
14.882165
 10
225.494698
 20
14.982354
 10
225.350598
 20
15.101564
 10
225.222497
 20
15.237962
 10
225.112597
 20
15.389262
 10
225.022596
 20
15.552951
 10
224.953697
 20
15.726969
 10
224.907198
 20
15.908155
 10
224.883689
 20
16.093745
 10
224.883698
 20
16.280548
 10
224.907207
 20
16.466165
 10
224.953697
 20
16.647352
 10
225.022596
 20
16.82137
 10
225.112597
 20
16.985059
 10
225.222497
 20
17.136471
 10
225.350598
 20
17.272756
 10
225.494596
 20
17.391967
 10
225.652598
 20
17.492156
 10
225.821796
 20
17.571771
 10
225.999596
 20
17.62957
 10
226.183297
 20
17.66465
 10
226.369996
 20
17.676221
  0
LWPOLYLINE
  5
142
100
AcDbEntity
  8
0
  6
ByLayer
 62
    7
370
   -1
100
AcDbPolyline
 90
    2
 70
    0
 43
0
 10
226.369996
 20
17.676362
 10
226.556697
 20
17.664791
  0
LWPOLYLINE
  5
143
100
AcDbEntity
  8
0
  6
ByLayer
 62
    7
370
   -1
100
AcDbPolyline
 90
   26
 70
    0
 43
0
 10
226.556697
 20
17.66465
 10
226.740398
 20
17.62957
 10
226.918097
 20
17.571855
 10
227.087396
 20
17.492156
 10
227.245398
 20
17.391967
 10
227.389396
 20
17.272756
 10
227.517398
 20
17.136471
 10
227.627397
 20
16.985059
 10
227.717497
 20
16.821257
 10
227.786297
 20
16.647352
 10
227.832796
 20
16.466165
 10
227.856305
 20
16.280548
 10
227.856296
 20
16.093745
 10
227.832787
 20
15.908155
 10
227.786297
 20
15.726969
 10
227.717497
 20
15.553063
 10
227.627397
 20
15.389262
 10
227.517398
 20
15.237849
 10
227.389396
 20
15.101564
 10
227.245297
 20
14.982354
 10
227.087396
 20
14.882165
 10
226.918198
 20
14.80255
 10
226.740398
 20
14.744751
 10
226.556697
 20
14.709755
 10
226.369996
 20
14.697902
 10
226.183297
 20
14.709812
  0
LWPOLYLINE
  5
144
100
AcDbEntity
  8
0
  6
ByLayer
 62
    7
370
   -1
100
AcDbPolyline
 90
   25
 70
    0
 43
0
 10
206.308297
 20
3.210159
 10
206.124598
 20
3.245155
 10
205.946798
 20
3.302164
 10
205.777496
 20
3.382145
 10
205.619697
 20
3.482165
 10
205.475597
 20
3.60115
 10
205.347497
 20
3.738169
 10
205.237596
 20
3.889158
 10
205.147596
 20
4.053157
 10
205.078697
 20
4.226949
 10
205.032198
 20
4.408164
 10
205.008689
 20
4.593754
 10
205.008697
 20
4.780557
 10
205.032206
 20
4.966146
 10
205.078697
 20
5.147361
 10
205.147596
 20
5.321351
 10
205.237596
 20
5.485068
 10
205.347497
 20
5.636452
 10
205.475597
 20
5.772765
 10
205.619598
 20
5.891948
 10
205.777598
 20
5.992165
 10
205.946798
 20
6.071751
 10
206.124598
 20
6.129551
 10
206.308297
 20
6.164659
 10
206.494998
 20
6.176512
  0
LWPOLYLINE
  5
145
100
AcDbEntity
  8
0
  6
ByLayer
 62
    7
370
   -1
100
AcDbPolyline
 90
    2
 70
    0
 43
0
 10
206.494998
 20
6.176371
 10
206.681697
 20
6.164518
  0
LWPOLYLINE
  5
146
100
AcDbEntity
  8
0
  6
ByLayer
 62
    7
370
   -1
100
AcDbPolyline
 90
   25
 70
    0
 43
0
 10
206.681697
 20
6.164659
 10
206.865398
 20
6.129551
 10
207.043096
 20
6.071864
 10
207.212398
 20
5.992165
 10
207.370398
 20
5.891948
 10
207.514396
 20
5.772765
 10
207.642398
 20
5.636452
 10
207.752397
 20
5.485068
 10
207.842496
 20
5.321266
 10
207.911296
 20
5.147361
 10
207.957798
 20
4.966146
 10
207.981307
 20
4.780557
 10
207.981296
 20
4.593754
 10
207.957787
 20
4.408164
 10
207.911296
 20
4.226949
 10
207.842496
 20
4.053157
 10
207.752397
 20
3.889158
 10
207.642398
 20
3.738169
 10
207.514396
 20
3.60115
 10
207.370296
 20
3.482165
 10
207.212398
 20
3.382145
 10
207.043198
 20
3.302164
 10
206.865398
 20
3.245155
 10
206.681697
 20
3.210159
 10
206.494998
 20
3.198306
  0
LWPOLYLINE
  5
147
100
AcDbEntity
  8
0
  6
ByLayer
 62
    7
370
   -1
100
AcDbPolyline
 90
    2
 70
    0
 43
0
 10
206.494998
 20
3.198165
 10
206.308297
 20
3.210018
  0
LWPOLYLINE
  5
148
100
AcDbEntity
  8
0
  6
ByLayer
 62
    7
370
   -1
100
AcDbPolyline
 90
   25
 70
    0
 43
0
 10
246.058298
 20
3.210159
 10
245.874596
 20
3.245155
 10
245.696796
 20
3.302164
 10
245.527497
 20
3.382145
 10
245.369698
 20
3.482165
 10
245.225595
 20
3.60115
 10
245.097498
 20
3.738169
 10
244.987597
 20
3.889158
 10
244.897597
 20
4.053157
 10
244.828698
 20
4.226949
 10
244.782196
 20
4.408164
 10
244.758687
 20
4.593754
 10
244.758695
 20
4.780557
 10
244.782205
 20
4.966146
 10
244.828698
 20
5.147361
 10
244.897597
 20
5.321351
 10
244.987597
 20
5.485068
 10
245.097498
 20
5.636452
 10
245.225595
 20
5.772765
 10
245.369596
 20
5.891948
 10
245.527596
 20
5.992165
 10
245.696796
 20
6.071751
 10
245.874596
 20
6.129551
 10
246.058298
 20
6.164659
 10
246.244996
 20
6.176512
  0
LWPOLYLINE
  5
149
100
AcDbEntity
  8
0
  6
ByLayer
 62
    7
370
   -1
100
AcDbPolyline
 90
    2
 70
    0
 43
0
 10
246.244996
 20
6.176371
 10
246.431697
 20
6.164518
  0
LWPOLYLINE
  5
14A
100
AcDbEntity
  8
0
  6
ByLayer
 62
    7
370
   -1
100
AcDbPolyline
 90
   25
 70
    0
 43
0
 10
246.431697
 20
6.164659
 10
246.615396
 20
6.129551
 10
246.793097
 20
6.071864
 10
246.962397
 20
5.992165
 10
247.120396
 20
5.891948
 10
247.264397
 20
5.772765
 10
247.392396
 20
5.636452
 10
247.502398
 20
5.485068
 10
247.592497
 20
5.321266
 10
247.661297
 20
5.147361
 10
247.707796
 20
4.966146
 10
247.731305
 20
4.780557
 10
247.731297
 20
4.593754
 10
247.707788
 20
4.408164
 10
247.661297
 20
4.226949
 10
247.592497
 20
4.053157
 10
247.502398
 20
3.889158
 10
247.392396
 20
3.738169
 10
247.264397
 20
3.60115
 10
247.120297
 20
3.482165
 10
246.962397
 20
3.382145
 10
246.793196
 20
3.302164
 10
246.615396
 20
3.245155
 10
246.431697
 20
3.210159
 10
246.244996
 20
3.198306
  0
LWPOLYLINE
  5
14B
100
AcDbEntity
  8
0
  6
ByLayer
 62
    7
370
   -1
100
AcDbPolyline
 90
    2
 70
    0
 43
0
 10
246.244996
 20
3.198165
 10
246.058298
 20
3.210018
  0
LWPOLYLINE
  5
14C
100
AcDbEntity
  8
0
  6
ByLayer
 62
    7
370
   -1
100
AcDbPolyline
 90
    9
 70
    0
 43
0
 10
301.299996
 20
2.490648
 10
301.299996
 20
224.442661
 10
281.065997
 20
244.676662
 10
15.933996
 20
244.676662
 10
-4.300003
 20
224.442661
 10
-4.300003
 20
2.490648
 10
15.933996
 20
-17.743331
 10
281.065997
 20
-17.743331
 10
301.299996
 20
2.490648
  0
DIMENSION
  5
14D
100
AcDbEntity
  8
0
  6
ByLayer
 62
  256
370
   -1
100
AcDbDimension
  2
*D1
 10
253.4952246650881
 20
256.8124435350381
 30
0
 11
201.0151256507673
 21
258.6874435350381
 31
0
 70
   32
 71
    5
  3
Standard
 53
0
210
0
220
0
230
1
100
AcDbAlignedDimension
 13
148.5350266364466
 23
198.2359406916578
 33
0
 14
253.4952246650881
 24
218.7579404484428
 34
0
100
AcDbRotatedDimension
  0
DIMENSION
  5
14E
100
AcDbEntity
  8
0
  6
ByLayer
 62
  256
370
   -1
100
AcDbDimension
  2
*D2
 10
126.0042375141238
 20
170.7725152698563
 30
0
 11
137.2566909070797
 21
172.6475152698563
 31
0
 70
   32
 71
    5
  3
Standard
 53
0
210
0
220
0
230
1
100
AcDbAlignedDimension
 13
148.5091443000356
 23
198.1854088429228
 33
0
 14
126.0042375141238
 24
181.6983619171906
 34
0
100
AcDbRotatedDimension
  0
DIMENSION
  5
14F
100
AcDbEntity
  8
0
  6
ByLayer
 62
  256
370
   -1
100
AcDbDimension
  2
*D3
 10
43.49216315217031
 20
256.8482715016676
 30
0
 11
96.0000555891269
 21
258.7232715016676
 31
0
 70
   32
 71
    5
  3
Standard
 53
0
210
0
220
0
230
1
100
AcDbAlignedDimension
 13
148.5079480260835
 23
198.1721440325028
 33
0
 14
43.49216315217031
 24
218.7522388014869
 34
0
100
AcDbRotatedDimension
  0
DIMENSION
  5
150
100
AcDbEntity
  8
0
  6
ByLayer
 62
  256
370
   -1
100
AcDbDimension
  2
*D4
 10
148.5073550548106
 20
12.17857142857395
 30
0
 11
153.9998841525116
 21
14.05357142857395
 31
0
 70
   32
 71
    5
  3
Standard
 53
0
210
0
220
0
230
1
100
AcDbAlignedDimension
 13
159.4924132502126
 23
49.92059051857585
 33
0
 14
148.5073550548106
 24
198.1621518961901
 34
0
100
AcDbRotatedDimension
  0
DIMENSION
  5
151
100
AcDbEntity
  8
0
  6
ByLayer
 62
  256
370
   -1
100
AcDbDimension
  2
*D5
 10
159.4893201067368
 20
23.19467660888349
 30
0
 11
119.5093714933327
 21
25.06967660888349
 31
0
 70
   32
 71
    5
  3
Standard
 53
0
210
0
220
0
230
1
100
AcDbAlignedDimension
 13
79.52942287992848
 23
33.45726446997313
 33
0
 14
159.4893201067368
 24
49.93502423790513
 34
0
100
AcDbRotatedDimension
  0
DIMENSION
  5
152
100
AcDbEntity
  8
0
  6
ByLayer
 62
  256
370
   -1
100
AcDbDimension
  2
*D6
 10
159.4893201067412
 20
12.23735917760489
 30
0
 11
165.2443273739234
 21
14.11235917760489
 31
0
 70
   32
 71
    5
  3
Standard
 53
0
210
0
220
0
230
1
100
AcDbAlignedDimension
 13
170.9993346411055
 23
33.43814114600786
 33
0
 14
159.4893201067412
 24
49.93502423790651
 34
0
100
AcDbRotatedDimension
  0
DIMENSION
  5
153
100
AcDbEntity
  8
0
  6
ByLayer
 62
  256
370
   -1
100
AcDbDimension
  2
*D7
 10
70.62345029948088
 20
-7.650817582972085
 30
0
 11
109.5656991627945
 21
-5.775817582972085
 31
0
 70
   32
 71
    5
  3
Standard
 53
0
210
0
220
0
230
1
100
AcDbAlignedDimension
 13
148.507948026108
 23
198.1920997969604
 33
0
 14
70.62345029948088
 24
16.19267741900664
 34
0
100
AcDbRotatedDimension
  0
DIMENSION
  5
154
100
AcDbEntity
  8
0
  6
ByLayer
 62
  256
370
   -1
100
AcDbDimension
  2
*D8
 10
50.74465810886
 20
-7.702703238695892
 30
0
 11
60.68331845618015
 21
-5.827703238695892
 31
0
 70
   32
 71
    5
  3
Standard
 53
0
210
0
220
0
230
1
100
AcDbAlignedDimension
 13
70.6219788035003
 23
16.19086090215995
 33
0
 14
50.74465810886
 24
4.695306286814181
 34
0
100
AcDbRotatedDimension
  0
DIMENSION
  5
155
100
AcDbEntity
  8
0
  6
ByLayer
 62
  256
370
   -1
100
AcDbDimension
  2
*D9
 10
226.3753408118206
 20
-7.784169116068522
 30
0
 11
187.4403041855572
 21
-5.909169116068522
 31
0
 70
   32
 71
    5
  3
Standard
 53
0
210
0
220
0
230
1
100
AcDbAlignedDimension
 13
148.5052675592939
 23
198.1775594348131
 33
0
 14
226.3753408118206
 24
16.19552824249692
 34
0
100
AcDbRotatedDimension
  0
DIMENSION
  5
156
100
AcDbEntity
  8
0
  6
ByLayer
 62
  256
370
   -1
100
AcDbDimension
  2
*D10
 10
246.2512821789628
 20
-7.839798932630384
 30
0
 11
236.3133114953942
 21
-5.964798932630384
 31
0
 70
   32
 71
    5
  3
Standard
 53
0
210
0
220
0
230
1
100
AcDbAlignedDimension
 13
226.3753408118256
 23
16.19837906598654
 33
0
 14
246.2512821789628
 24
4.669648875411166
 34
0
100
AcDbRotatedDimension
  0
DIMENSION
  5
157
100
AcDbEntity
  8
0
  6
ByLayer
 62
  256
370
   -1
100
AcDbDimension
  2
*D11
 10
246.2512821789723
 20
28.18704357321429
 30
0
 11
226.3724899883462
 21
30.06204357321429
 31
0
 70
   32
 71
    5
  3
Standard
 53
0
210
0
220
0
230
1
100
AcDbAlignedDimension
 13
206.49369779772
 23
4.695306286814641
 33
0
 14
246.2512821789723
 24
4.692455463325442
 34
0
100
AcDbRotatedDimension
  0
DIMENSION
  5
158
100
AcDbEntity
  8
0
  6
ByLayer
 62
  256
370
   -1
100
AcDbDimension
  2
*D12
 10
170.9923928859524
 20
164.1695328770896
 30
0
 11
148.4951193204365
 21
166.0445328770896
 31
0
 70
   32
 71
    5
  3
Standard
 53
0
210
0
220
0
230
1
100
AcDbAlignedDimension
 13
125.9978457549206
 23
181.697235088125
 33
0
 14
170.9923928859524
 24
181.6858317941753
 34
0
100
AcDbRotatedDimension
  0
DIMENSION
  5
159
100
AcDbEntity
  8
0
  6
ByLayer
 62
  256
370
   -1
100
AcDbDimension
  2
*D13
 10
313.8212928245777
 20
186.9741093667683
 30
0
 11
311.9462928245777
 21
202.8645994959155
 31
0
 70
   32
 71
    5
  3
Standard
 53
0
210
0
220
0
230
1
100
AcDbAlignedDimension
 13
253.4952246652145
 23
218.7550896250626
 33
0
 14
253.5009263121974
 24
186.9741093667683
 34
0
 50
90
100
AcDbRotatedDimension
  0
DIMENSION
  5
15A
100
AcDbEntity
  8
0
  6
ByLayer
 62
  256
370
   -1
100
AcDbDimension
  2
*D14
 10
313.8318127753687
 20
137.1844771268217
 30
0
 11
311.9568127753687
 21
162.0803163559453
 31
0
 70
   32
 71
    5
  3
Standard
 53
0
210
0
220
0
230
1
100
AcDbAlignedDimension
 13
253.5021291891434
 23
186.9761555850688
 33
0
 14
253.4952246652602
 24
137.1844771268217
 34
0
 50
90
100
AcDbRotatedDimension
  0
DIMENSION
  5
15B
100
AcDbEntity
  8
0
  6
ByLayer
 62
  256
370
   -1
100
AcDbDimension
  2
*D15
 10
328.3943227207279
 20
4.689604639838056
 30
0
 11
326.5193227207279
 21
70.93810816694254
 31
0
 70
   32
 71
    5
  3
Standard
 53
0
210
0
220
0
230
1
100
AcDbAlignedDimension
 13
253.4953579172758
 23
137.186611694047
 33
0
 14
246.2512821790714
 24
4.689604639838067
 34
0
 50
90
100
AcDbRotatedDimension
  0
DIMENSION
  5
15C
100
AcDbEntity
  8
0
  6
ByLayer
 62
  256
370
   -1
100
AcDbDimension
  2
*D16
 10
320.5671591325125
 20
137.1819512972341
 30
0
 11
318.6921591325125
 21
93.55563694409594
 31
0
 70
   32
 71
    5
  3
Standard
 53
0
210
0
220
0
230
1
100
AcDbAlignedDimension
 13
159.4864692833471
 23
49.92932259095777
 33
0
 14
253.4893747755044
 24
137.1819512972341
 34
0
 50
90
100
AcDbRotatedDimension
  0
DIMENSION
  5
15D
100
AcDbEntity
  8
0
  6
ByLayer
 62
  256
370
   -1
100
AcDbDimension
  2
*D17
 10
-17.04464616795359
 20
218.7579404486459
 30
0
 11
-18.91964616795359
 21
208.4807217698471
 31
0
 70
   32
 71
    5
  3
Standard
 53
0
210
0
220
0
230
1
100
AcDbAlignedDimension
 13
148.5079480262061
 23
198.2035030910483
 33
0
 14
43.49216315220618
 24
218.7579404486459
 34
0
 50
90
100
AcDbRotatedDimension
  0
DIMENSION
  5
15E
100
AcDbEntity
  8
0
  6
ByLayer
 62
  256
370
   -1
100
AcDbDimension
  2
*D18
 10
43.55331878888209
 20
-17.73160601133473
 30
0
 11
41.67831878888209
 21
-6.516724450514081
 31
0
 70
   32
 71
    5
  3
Standard
 53
0
210
0
220
0
230
1
100
AcDbAlignedDimension
 13
50.7446581088937
 23
4.698157110306563
 33
0
 14
50.74867568656592
 24
-17.73160601133473
 34
0
 50
90
100
AcDbRotatedDimension
  0
DIMENSION
  5
15F
100
AcDbEntity
  8
0
  6
ByLayer
 62
  256
370
   -1
100
AcDbDimension
  2
*D19
 10
111.7653596939917
 20
49.93030111637199
 30
0
 11
109.8903596939917
 21
115.8137681022991
 31
0
 70
   32
 71
    5
  3
Standard
 53
0
210
0
220
0
230
1
100
AcDbAlignedDimension
 13
125.9949949315015
 23
181.6972350882263
 33
0
 14
159.4849941408998
 24
49.93030111637198
 34
0
 50
90
100
AcDbRotatedDimension
  0
DIMENSION
  5
160
100
AcDbEntity
  8
0
  6
ByLayer
 62
  256
370
   -1
100
AcDbDimension
  2
*D20
 10
184.6628093287265
 20
181.696333509751
 30
0
 11
182.7878093287265
 21
189.9508769395031
 31
0
 70
   32
 71
    5
  3
Standard
 53
0
210
0
220
0
230
1
100
AcDbAlignedDimension
 13
148.5043632978106
 23
198.2054203692553
 33
0
 14
170.9963146859986
 24
181.696333509751
 34
0
 50
90
100
AcDbRotatedDimension
  0
DIMENSION
  5
161
100
AcDbEntity
  8
0
  6
ByLayer
 62
  256
370
   -1
100
AcDbDimension
  2
*D21
 10
184.239569636979
 20
33.45137117428261
 30
0
 11
182.364569636979
 21
41.69242490808873
 31
0
 70
   32
 71
    5
  3
Standard
 53
0
210
0
220
0
230
1
100
AcDbAlignedDimension
 13
159.4916333317358
 23
49.93347864189486
 33
0
 14
171.0015827468959
 24
33.45137117428261
 34
0
 50
90
100
AcDbRotatedDimension
  0
DIMENSION
  5
162
100
AcDbEntity
  8
0
  6
ByLayer
 62
  256
370
   -1
100
AcDbDimension
  2
*D22
 10
42.88119510349502
 20
16.18355375001087
 30
0
 11
41.00619510349502
 21
33.05664269556237
 31
0
 70
   32
 71
    5
  3
Standard
 53
0
210
0
220
0
230
1
100
AcDbAlignedDimension
 13
159.4910252326241
 23
49.92973164111387
 33
0
 14
70.62409903634416
 24
16.18355375001086
 34
0
 50
90
100
AcDbRotatedDimension
  0
DIMENSION
  5
163
100
AcDbEntity
  8
0
  6
ByLayer
 62
  256
370
   -1
100
AcDbDimension
  2
*D23
 10
38.82616019668671
 20
4.699283999737318
 30
0
 11
36.95116019668671
 21
10.44141887487417
 31
0
 70
   32
 71
    5
  3
Standard
 53
0
210
0
220
0
230
1
100
AcDbAlignedDimension
 13
70.62123012059411
 23
16.18355375001103
 33
0
 14
50.7453817993612
 24
4.699283999737316
 34
0
 50
90
100
AcDbRotatedDimension
  0
ENDSEC
  0
SECTION
  2
OBJECTS
  0
DICTIONARY
  5
C
330
0
100
AcDbDictionary
281
    1
  3
ACAD_GROUP
350
D
  0
DICTIONARY
  5
D
330
C
100
AcDbDictionary
281
    1
  0
ENDSEC
  0
EOF
